<svg width="23" height="23" viewBox="0 0 23 23" fill="none" xmlns="http://www.w3.org/2000/svg">
<g id="chicken 1" clip-path="url(#clip0_0_525)">
<g id="Group">
<path id="Vector" d="M21.7594 3.01443C21.6163 2.89557 21.4377 2.79363 21.2135 2.70277C20.9515 2.59656 20.7323 2.41458 20.5794 2.17652C20.4488 1.97298 20.3156 1.81623 20.1724 1.69732C19.7785 1.37053 19.281 1.21681 18.772 1.26441C18.2626 1.3121 17.8023 1.55553 17.4759 1.94988C16.9971 2.52829 16.9072 3.30649 17.2022 3.95812L16.0617 5.336C15.0224 5.3054 14.0499 5.74224 13.3816 6.54397C13.2128 6.7464 13.0008 6.90298 12.7625 7.00497C12.1175 6.83803 11.2656 6.81127 10.7868 6.81127C6.35283 6.81127 2.74556 10.4431 2.74556 14.9072C2.74556 15.7756 2.38919 16.1321 1.89593 16.6256C1.33218 17.1895 0.630646 17.8913 0.630646 19.3811C0.630646 19.4904 0.636868 19.6022 0.649185 19.7134C0.82558 21.3073 2.18582 22.5092 3.81323 22.5092H14.7898V22.5093C14.7918 22.5093 14.7937 22.5092 14.7957 22.5092H14.8505V22.5085C17.8627 22.4717 20.3031 19.7034 20.3031 16.3054C20.3031 14.3601 19.5783 12.4946 18.3944 11.3488C18.3962 11.1448 18.4597 10.9551 18.5739 10.8139C19.1018 10.1619 19.3656 9.33928 19.3165 8.4977C19.2969 8.16089 19.2256 7.8321 19.1087 7.52069L20.0877 6.35381C20.7832 6.52428 21.5319 6.29146 22.0116 5.71198C22.6849 4.8987 22.5718 3.68861 21.7594 3.01443ZM14.3636 7.36262C14.7904 6.85056 15.4181 6.57866 16.0842 6.61646C17.1204 6.67527 17.9796 7.53428 18.0401 8.57212C18.0706 9.095 17.9073 9.60547 17.5802 10.0095C17.2813 10.3787 17.1163 10.8562 17.1155 11.3552V11.3592C17.1128 12.2369 16.7644 13.0591 16.1345 13.6743C15.5064 14.2877 14.678 14.6165 13.8031 14.5976C12.0697 14.562 10.6662 13.1191 10.6745 11.3812C10.6813 9.95038 11.6046 8.70768 12.9722 8.28888C13.5162 8.12224 13.9973 7.80192 14.3636 7.36262ZM9.38383 21.2307H5.63383V20.1457C5.63383 18.6672 7.24445 17.4645 9.22418 17.4645H9.38383V21.2307ZM19.0245 16.3054C19.0245 19.0191 17.1279 21.2271 14.7955 21.2307H10.6624V16.1859H9.22418C7.95182 16.1859 6.74939 16.5798 5.83852 17.2949C4.882 18.0458 4.35524 19.0582 4.35524 20.1457V21.2307H3.81323C2.83851 21.2307 2.02464 20.5179 1.92005 19.5728C1.91289 19.5081 1.90927 19.4436 1.90927 19.3811C1.90927 18.4207 2.30242 18.0273 2.8002 17.5294C3.3455 16.9839 4.02415 16.305 4.02415 14.9071C4.02415 11.148 7.05782 8.08977 10.7868 8.08977C10.8029 8.08977 10.8188 8.08998 10.8349 8.09006C10.6436 8.26833 10.4669 8.46254 10.309 8.67171C9.71637 9.45661 9.40066 10.3914 9.39597 11.375C9.38442 13.8069 11.3497 15.826 13.7769 15.8759C13.8088 15.8765 13.8404 15.8768 13.8722 15.8768C15.0579 15.8768 16.1754 15.4216 17.0279 14.5889C17.5003 14.1275 17.8588 13.5823 18.0899 12.9861C18.6745 13.8852 19.0245 15.0863 19.0245 16.3054ZM21.0267 4.8967C20.8266 5.13834 20.4863 5.19877 20.2175 5.04045L19.7511 4.76569L18.3947 6.38249C18.3748 6.36152 18.3552 6.34021 18.3347 6.31967C18.07 6.0551 17.7667 5.83958 17.4383 5.67797L18.8275 3.99963L18.47 3.59024C18.264 3.3544 18.2602 3.0074 18.4607 2.76512C18.5692 2.63407 18.7221 2.55318 18.891 2.53737C19.06 2.5216 19.225 2.57265 19.3557 2.68116C19.3699 2.69292 19.4225 2.74117 19.5034 2.86723C19.7997 3.32878 20.2249 3.68162 20.733 3.88759C20.8717 3.94385 20.9287 3.98655 20.9429 3.99831C21.2134 4.22278 21.251 4.62582 21.0267 4.8967Z" fill="white"/>
</g>
</g>
<defs>
<clipPath id="clip0_0_525">
<rect width="21.8204" height="21.8204" fill="white" transform="translate(0.630646 0.971436)"/>
</clipPath>
</defs>
</svg>
