<svg width="19" height="23" viewBox="0 0 19 23" fill="none" xmlns="http://www.w3.org/2000/svg">
<g id="ic_Fruit">
<path id="Vector" d="M18.9488 7.87555C18.9488 5.85452 17.3047 4.2104 15.2836 4.2104C14.1548 4.2104 13.1437 4.72382 12.4708 5.5289C11.9729 4.93308 11.2895 4.49791 10.5104 4.31145V4.25302C10.5104 3.38351 11.2178 2.67615 12.0873 2.67615C12.5581 2.67615 12.9396 2.29459 12.9396 1.8238C12.9396 1.353 12.5581 0.971436 12.0873 0.971436C10.2779 0.971436 8.8057 2.44359 8.8057 4.25302V4.31145C8.02659 4.49791 7.3432 4.93308 6.84527 5.5289C6.17238 4.72382 5.16136 4.2104 4.03249 4.2104C2.01146 4.2104 0.36734 5.85452 0.36734 7.87555C0.36734 9.80418 1.86496 11.3884 3.75813 11.5294C3.39288 12.0992 3.18013 12.7756 3.18013 13.5011C3.18013 15.4298 4.67775 17.0139 6.57092 17.1549C6.20567 17.7248 5.99291 18.4012 5.99291 19.1267C5.99291 21.1477 7.63704 22.7918 9.65806 22.7918C11.6791 22.7918 13.3232 21.1477 13.3232 19.1267C13.3232 18.4012 13.1104 17.7248 12.7452 17.1549C14.6384 17.0139 16.136 15.4298 16.136 13.5011C16.136 12.7756 15.9232 12.0992 15.558 11.5294C17.4512 11.3884 18.9488 9.80418 18.9488 7.87555ZM9.65207 5.91529C9.65407 5.91529 9.65606 5.91562 9.65806 5.91562C9.66006 5.91562 9.66206 5.91529 9.66405 5.91529C10.7423 5.91862 11.6185 6.79661 11.6185 7.87555C11.6185 8.95648 10.739 9.83598 9.65806 9.83598C8.57713 9.83598 7.69763 8.95648 7.69763 7.87555C7.69763 6.79661 8.5738 5.91862 9.65207 5.91529ZM4.03249 9.83598C2.95155 9.83598 2.07206 8.95648 2.07206 7.87555C2.07206 6.79462 2.95155 5.91512 4.03249 5.91512C5.11342 5.91512 5.99291 6.79462 5.99291 7.87555C5.99291 8.95648 5.11342 9.83598 4.03249 9.83598ZM6.84527 15.4615C5.76434 15.4615 4.88485 14.5821 4.88485 13.5011C4.88485 12.4202 5.76434 11.5407 6.84527 11.5407C7.92621 11.5407 8.8057 12.4202 8.8057 13.5011C8.8057 14.5821 7.92621 15.4615 6.84527 15.4615ZM9.65806 21.0871C8.57713 21.0871 7.69763 20.2076 7.69763 19.1267C7.69763 18.0458 8.57713 17.1663 9.65806 17.1663C10.739 17.1663 11.6185 18.0458 11.6185 19.1267C11.6185 20.2076 10.739 21.0871 9.65806 21.0871ZM12.4708 15.4615C11.3899 15.4615 10.5104 14.5821 10.5104 13.5011C10.5104 12.4202 11.3899 11.5407 12.4708 11.5407C13.5518 11.5407 14.4313 12.4202 14.4313 13.5011C14.4313 14.5821 13.5518 15.4615 12.4708 15.4615ZM15.2836 9.83598C14.2027 9.83598 13.3232 8.95648 13.3232 7.87555C13.3232 6.79462 14.2027 5.91512 15.2836 5.91512C16.3646 5.91512 17.2441 6.79462 17.2441 7.87555C17.2441 8.95648 16.3646 9.83598 15.2836 9.83598Z" fill="white"/>
</g>
</svg>
