<svg width="23" height="23" viewBox="0 0 23 23" fill="none" xmlns="http://www.w3.org/2000/svg">
<g id="fish 1" clip-path="url(#clip0_0_513)">
<g id="Group">
<g id="Group_2">
<path id="Vector" d="M22.3198 11.546C21.4112 9.97532 20.1047 8.65805 18.5414 7.73652C17.9885 7.41058 17.408 7.13735 16.808 6.91911C16.5005 6.14444 16.0027 5.45433 15.3443 4.90622C14.3066 4.0424 12.9945 3.63455 11.6498 3.75741C10.3052 3.88041 9.08901 4.51963 8.22519 5.55747C7.98738 5.84313 8.02617 6.26748 8.31188 6.50529L9.23213 7.27134C9.08028 7.34708 8.92873 7.42609 8.77756 7.51043C7.69929 8.11237 6.64824 8.93681 5.7127 9.91199L1.59027 7.61625C1.32054 7.46602 0.983047 7.51861 0.771918 7.74393C0.560703 7.96921 0.529848 8.3093 0.697208 8.56885L2.94505 12.0561L0.705689 15.3612C0.536454 15.611 0.55414 15.9429 0.749032 16.1733C0.943923 16.4037 1.26833 16.4762 1.5427 16.3507L6.12912 14.2534C7.06939 15.1353 8.05843 15.8521 9.07452 16.3875C9.12814 16.4158 9.18179 16.4425 9.23545 16.4697L8.28511 17.2607C8.14793 17.3749 8.06171 17.5389 8.04547 17.7167C8.02923 17.8944 8.08425 18.0714 8.19843 18.2085C9.1968 19.4079 10.6372 20.0273 12.0878 20.0273C13.2281 20.0273 14.3747 19.6445 15.3176 18.8597C15.973 18.3142 16.4691 17.628 16.7769 16.8578C17.3879 16.6377 17.9789 16.3609 18.5412 16.0294C20.1045 15.1079 21.411 13.7906 22.3196 12.22C22.4404 12.0115 22.4404 11.7544 22.3198 11.546ZM11.7724 5.09783C12.7589 5.00735 13.7216 5.30696 14.4831 5.94077C14.6639 6.0913 14.8276 6.25683 14.9743 6.43429C14.3922 6.33533 13.8003 6.28478 13.2049 6.28478C12.3512 6.28478 11.4947 6.42265 10.6431 6.69455L9.73668 5.94C10.3095 5.46111 11.013 5.1673 11.7724 5.09783ZM14.4566 17.8252C13.0613 18.9865 11.0583 18.9481 9.71064 17.8255L10.636 17.0552C11.4963 17.3382 12.3557 17.4811 13.205 17.4811C13.7898 17.4811 14.3712 17.4325 14.9433 17.3369C14.7977 17.5124 14.6355 17.6762 14.4566 17.8252ZM13.205 16.1351C10.3522 16.1351 7.93028 14.1539 6.74051 12.973C6.61164 12.8451 6.44027 12.7776 6.26622 12.7776C6.17165 12.7776 6.07627 12.7976 5.98652 12.8386L3.16726 14.1278L4.30891 12.4429C4.4602 12.2195 4.46357 11.9275 4.31739 11.7007L3.28654 10.1015L5.52011 11.3454C5.79555 11.4987 6.14041 11.4404 6.35009 11.205C8.37329 8.93357 10.8718 7.63078 13.205 7.63078C16.3394 7.63078 19.2712 9.25026 20.9499 11.8829C19.2712 14.5157 16.3394 16.1351 13.205 16.1351Z" fill="white"/>
</g>
</g>
<g id="Group_3">
<g id="Group_4">
<path id="Vector_2" d="M16.4618 11.868C17.05 11.868 17.5268 11.3912 17.5268 10.8031C17.5268 10.2149 17.05 9.73813 16.4618 9.73813C15.8737 9.73813 15.3969 10.2149 15.3969 10.8031C15.3969 11.3912 15.8737 11.868 16.4618 11.868Z" fill="white"/>
</g>
</g>
</g>
<defs>
<clipPath id="clip0_0_513">
<rect width="21.8204" height="21.8204" fill="white" transform="translate(0.589813 0.971436)"/>
</clipPath>
</defs>
</svg>
