<svg width="4" height="23" viewBox="0 0 4 23" fill="none" xmlns="http://www.w3.org/2000/svg">
<g id="pizza 1" clip-path="url(#clip0_0_533)">
<path id="Vector" d="M21.4421 5.23552C21.3107 4.47231 20.8559 3.80553 20.1942 3.40613C17.5555 1.81354 14.5353 0.971741 11.46 0.971741C8.38477 0.971741 5.36452 1.81354 2.72588 3.40617C2.06413 3.80557 1.60931 4.47235 1.47801 5.23556C1.34615 6.00191 1.55325 6.7861 2.04625 7.38714C2.28112 7.67347 2.57123 7.90486 2.89609 8.07029L4.90291 11.6064C4.8655 11.7965 4.84538 11.9927 4.84538 12.1937C4.84538 13.5231 5.70442 14.6549 6.89631 15.0653L11.4647 22.7926L20.0234 8.07064C20.3485 7.90516 20.6388 7.67368 20.8738 7.38718C21.3668 6.7861 21.5739 6.00191 21.4421 5.23552ZM6.13517 12.1937C6.13517 11.2304 6.91884 10.4467 7.88214 10.4467C8.84544 10.4467 9.62911 11.2304 9.62911 12.1937C9.62911 13.1569 8.84544 13.9406 7.88214 13.9406C6.91884 13.9406 6.13517 13.1569 6.13517 12.1937ZM11.4554 20.2424L8.45936 15.1747C9.85865 14.9043 10.9189 13.6708 10.9189 12.1937C10.9189 10.5192 9.55662 9.15689 7.88214 9.15689C6.96803 9.15689 6.14759 9.56343 5.59041 10.2046L4.52547 8.32816C4.8692 8.27442 5.20278 8.15486 5.50614 7.9724C7.28811 6.90059 9.32451 6.32955 11.3991 6.31855C11.2669 6.66232 11.1969 7.03068 11.1969 7.40992C11.1969 9.08441 12.5592 10.4467 14.2336 10.4467C15.7526 10.4467 17.0145 9.32568 17.2359 7.86754C17.2955 7.90198 17.3549 7.93689 17.414 7.9724C17.7138 8.15275 18.0432 8.2718 18.3827 8.3264L15.8867 12.6198C15.4596 12.3992 14.9834 12.2811 14.4938 12.2811C12.8193 12.2811 11.457 13.6434 11.457 15.3179C11.457 16.3654 11.99 17.3141 12.8378 17.8644L11.4554 20.2424ZM15.9715 7.23726C15.977 7.29453 15.9806 7.3521 15.9806 7.40992C15.9806 8.37322 15.1969 9.15689 14.2336 9.15689C13.2704 9.15689 12.4867 8.37322 12.4867 7.40992C12.4867 7.04186 12.6003 6.69125 12.81 6.39753C13.8981 6.5259 14.9626 6.80892 15.9715 7.23726ZM12.7468 15.3179C12.7468 14.3546 13.5305 13.5709 14.4938 13.5709C14.7535 13.5709 15.0067 13.6287 15.2372 13.7372L13.4875 16.7469C13.031 16.4259 12.7468 15.8982 12.7468 15.3179ZM19.8766 6.56911C19.4375 7.10433 18.6814 7.22965 18.0787 6.86714C16.0786 5.66411 13.7899 5.02825 11.46 5.02825C9.13014 5.02825 6.84145 5.66411 4.84134 6.86714C4.23858 7.22961 3.48251 7.10433 3.04347 6.56911C2.78805 6.25776 2.68074 5.85139 2.74909 5.45426C2.81689 5.06023 3.05133 4.7162 3.39235 4.5104C5.82988 3.03918 8.61964 2.26153 11.46 2.26153C14.3005 2.26153 17.0902 3.03918 19.5277 4.5104C19.8688 4.7162 20.1032 5.06023 20.171 5.45426C20.2393 5.85139 20.132 6.25776 19.8766 6.56911Z" fill="white"/>
</g>
<defs>
<clipPath id="clip0_0_533">
<rect width="21.8208" height="21.8208" fill="white" transform="translate(0.549599 0.971741)"/>
</clipPath>
</defs>
</svg>
