<svg width="42" height="32" viewBox="0 0 42 32" fill="none" xmlns="http://www.w3.org/2000/svg">
<g id="Frame" clip-path="url(#clip0_1892_592)">
<path id="Vector" d="M7.48312 31.8406V29.7226C7.48312 28.9106 6.9888 28.3812 6.14153 28.3812C5.71797 28.3812 5.25904 28.5224 4.94129 28.9813C4.69429 28.593 4.34133 28.3812 3.8118 28.3812C3.45867 28.3812 3.10587 28.487 2.82334 28.8753V28.4518H2.08203V31.8406H2.82334V29.9696C2.82334 29.3696 3.14109 29.0871 3.6354 29.0871C4.12939 29.0871 4.3767 29.4049 4.3767 29.9696V31.8406H5.11801V29.9696C5.11801 29.3696 5.47082 29.0871 5.92975 29.0871C6.42406 29.0871 6.67106 29.4049 6.67106 29.9696V31.8406H7.48312ZM18.4614 28.4518H17.2613V27.4281H16.52V28.4518H15.8493V29.1223H16.5198V30.6757C16.5198 31.4524 16.8376 31.9112 17.6848 31.9112C18.0026 31.9112 18.3554 31.8053 18.6027 31.6642L18.3908 31.0287C18.179 31.1698 17.932 31.2052 17.7554 31.2052C17.4025 31.2052 17.2613 30.9934 17.2613 30.6403V29.1223H18.4614V28.4518ZM24.7449 28.381C24.3214 28.381 24.039 28.593 23.8625 28.8753V28.4518H23.1211V31.8406H23.8625V29.9344C23.8625 29.3696 24.1094 29.0519 24.5684 29.0519C24.7096 29.0519 24.8861 29.0873 25.0273 29.1225L25.2391 28.4166C25.0979 28.3812 24.8861 28.3812 24.7449 28.3812V28.381ZM15.2491 28.7341C14.896 28.487 14.4019 28.3812 13.8723 28.3812C13.0252 28.3812 12.4605 28.8047 12.4605 29.4755C12.4605 30.0404 12.884 30.3579 13.6253 30.4639L13.9783 30.4993C14.3667 30.5697 14.5784 30.6757 14.5784 30.8523C14.5784 31.0993 14.2961 31.2758 13.8018 31.2758C13.3076 31.2758 12.9193 31.0993 12.6721 30.9229L12.3191 31.4876C12.7075 31.77 13.237 31.9112 13.7664 31.9112C14.7548 31.9112 15.3197 31.4524 15.3197 30.8169C15.3197 30.2168 14.8608 29.899 14.1547 29.7932L13.8018 29.7578C13.484 29.7225 13.237 29.652 13.237 29.4402C13.237 29.1931 13.484 29.0519 13.8723 29.0519C14.2961 29.0519 14.7196 29.2283 14.9314 29.3343L15.2491 28.7341ZM34.9468 28.3812C34.5231 28.3812 34.2407 28.593 34.0642 28.8753V28.4518H33.3229V31.8406H34.0642V29.9344C34.0642 29.3696 34.3113 29.0519 34.7701 29.0519C34.9115 29.0519 35.088 29.0873 35.2292 29.1225L35.441 28.4166C35.2998 28.3812 35.088 28.3812 34.9468 28.3812ZM25.4863 30.1462C25.4863 31.1698 26.1922 31.9112 27.2866 31.9112C27.7808 31.9112 28.1337 31.8053 28.4867 31.523L28.1337 30.9229C27.8514 31.1346 27.569 31.2404 27.2512 31.2404C26.6511 31.2404 26.2276 30.8169 26.2276 30.1462C26.2276 29.5108 26.6511 29.0871 27.2512 29.0519C27.569 29.0519 27.8514 29.1577 28.1337 29.3696L28.4867 28.7695C28.1337 28.487 27.7808 28.3812 27.2866 28.3812C26.1922 28.3812 25.4863 29.1225 25.4863 30.1462ZM32.3346 30.1462V28.4518H31.5933V28.8753C31.3461 28.5577 30.9931 28.3812 30.5342 28.3812C29.5811 28.3812 28.8398 29.1225 28.8398 30.1462C28.8398 31.1698 29.5811 31.9112 30.5342 31.9112C31.0284 31.9112 31.3815 31.7348 31.5933 31.417V31.8406H32.3346V30.1462ZM29.6163 30.1462C29.6163 29.546 30.0047 29.0519 30.64 29.0519C31.2401 29.0519 31.6639 29.5108 31.6639 30.1462C31.6639 30.7463 31.2401 31.2404 30.64 31.2404C30.0047 31.2051 29.6163 30.7463 29.6163 30.1462ZM20.756 28.3812C19.7676 28.3812 19.0615 29.0871 19.0615 30.1462C19.0615 31.2052 19.7674 31.9112 20.7913 31.9112C21.2854 31.9112 21.7797 31.77 22.1681 31.4524L21.8149 30.9229C21.5326 31.1346 21.1796 31.2758 20.8266 31.2758C20.3677 31.2758 19.9088 31.064 19.8028 30.4638H22.3092V30.1815C22.3446 29.0871 21.7091 28.3812 20.7559 28.3812H20.756ZM20.756 29.0165C21.2148 29.0165 21.5327 29.2991 21.6032 29.8286H19.8382C19.9088 29.3696 20.2265 29.0165 20.756 29.0165ZM39.1475 30.1462V27.1104H38.4062V28.8753C38.1591 28.5577 37.8061 28.3812 37.3472 28.3812C36.3941 28.3812 35.6528 29.1225 35.6528 30.1462C35.6528 31.1698 36.3941 31.9112 37.3472 31.9112C37.8415 31.9112 38.1944 31.7348 38.4062 31.417V31.8406H39.1475V30.1462ZM36.4295 30.1462C36.4295 29.546 36.8176 29.0519 37.4531 29.0519C38.0532 29.0519 38.4768 29.5108 38.4768 30.1462C38.4768 30.7463 38.0532 31.2404 37.4531 31.2404C36.8176 31.2051 36.4295 30.7463 36.4295 30.1462ZM11.6484 30.1462V28.4518H10.9071V28.8753C10.66 28.5577 10.307 28.3812 9.84806 28.3812C8.89498 28.3812 8.15367 29.1225 8.15367 30.1462C8.15367 31.1698 8.89498 31.9112 9.84806 31.9112C10.3424 31.9112 10.6953 31.7348 10.9071 31.417V31.8406H11.6484V30.1462ZM8.89498 30.1462C8.89498 29.546 9.28332 29.0519 9.91865 29.0519C10.5188 29.0519 10.9425 29.5108 10.9425 30.1462C10.9425 30.7463 10.5188 31.2404 9.91865 31.2404C9.28332 31.2051 8.89498 30.7463 8.89498 30.1462Z" fill="white"/>
<path id="Vector_2" d="M15.002 2.71777H26.1216V22.6978H15.002V2.71777Z" fill="#FF5F00"/>
<path id="Vector_3" d="M15.7088 12.7082C15.7088 8.64868 17.615 5.04796 20.5448 2.71807C18.3916 1.02368 15.6736 0 12.7083 0C5.6833 0 0 5.6833 0 12.7082C0 19.7329 5.6833 25.4164 12.7082 25.4164C15.6734 25.4164 18.3915 24.3927 20.5448 22.6981C17.615 20.4036 15.7088 16.7677 15.7088 12.7082Z" fill="#EB001B"/>
<path id="Vector_4" d="M41.1249 12.7082C41.1249 19.7329 35.4416 25.4164 28.4167 25.4164C25.4515 25.4164 22.7334 24.3927 20.5801 22.6981C23.5453 20.3684 25.4163 16.7677 25.4163 12.7082C25.4163 8.64868 23.5099 5.04796 20.5801 2.71807C22.7332 1.02368 25.4515 0 28.4167 0C35.4416 0 41.125 5.71867 41.125 12.7082H41.1249Z" fill="#F79E1B"/>
</g>
<defs>
<clipPath id="clip0_1892_592">
<rect width="41.1658" height="32" fill="white"/>
</clipPath>
</defs>
</svg>
