<svg width="24" height="20" viewBox="0 0 24 20" fill="none" xmlns="http://www.w3.org/2000/svg">
<g id="Group">
<path id="Vector" d="M1.50065 19.3333H1.51432C2.1569 19.3333 2.68099 18.8092 2.68099 18.1667C2.68099 17.5241 2.1569 17 1.51432 17H1.50065C0.858073 17 0.333984 17.5241 0.333984 18.1667C0.333984 18.8092 0.858073 19.3333 1.50065 19.3333Z" fill="white"/>
<path id="Vector_2" d="M7.33399 18.1663C7.33399 14.9443 4.72266 12.333 1.50065 12.333C0.858073 12.333 0.333984 12.8571 0.333984 13.4997C0.333984 14.1423 0.858073 14.6663 1.50065 14.6663C3.43294 14.6709 4.99609 16.234 5.00065 18.1663C5.00065 18.8089 5.52474 19.333 6.16732 19.333C6.8099 19.333 7.33399 18.8089 7.33399 18.1663Z" fill="white"/>
<path id="Vector_3" d="M12.0007 18.1665C12.0007 12.3651 7.30208 7.6665 1.50065 7.6665C0.858073 7.6665 0.333984 8.19059 0.333984 8.83317C0.333984 9.47575 0.858073 9.99984 1.50065 9.99984C3.76107 9.99984 5.79362 10.9113 7.27474 12.3924C8.75586 13.8735 9.66732 15.9061 9.66732 18.1665C9.66732 18.8091 10.1914 19.3332 10.834 19.3332C11.4766 19.3332 12.0007 18.8091 12.0007 18.1665Z" fill="white"/>
<path id="Vector_4" d="M15.5009 19.3332H19.0009C21.5803 19.3332 23.6676 17.2459 23.6676 14.6665V5.33317C23.6676 2.75374 21.5803 0.666504 19.0009 0.666504H5.00092H4.99181C3.03217 0.684733 1.29129 1.92887 0.635039 3.77913C0.420846 4.38525 0.739857 5.05518 1.34598 5.26937C1.9521 5.48356 2.62202 5.16455 2.83621 4.55843C3.16434 3.6333 4.03478 3.01351 5.0146 3.00439H5.00548H19.0055C20.2952 3.00895 21.3343 4.04801 21.3388 5.33773V14.6711C21.3343 15.9608 20.2952 16.9998 19.0055 17.0044H15.5055C14.8629 17.0044 14.3388 17.5285 14.3388 18.1711C14.3343 18.8091 14.8583 19.3332 15.5009 19.3332Z" fill="white"/>
</g>
</svg>
