<svg width="18" height="16" viewBox="0 0 18 16" fill="none" xmlns="http://www.w3.org/2000/svg">
<g id="Group">
<path id="Vector" opacity="0.4" d="M9.81293 0.594841L11.6683 4.3234C11.805 4.59354 12.0659 4.78114 12.3668 4.82282L16.5344 5.4298C16.7778 5.46398 16.9986 5.59238 17.1478 5.78831C17.2954 5.98175 17.3587 6.22687 17.3229 6.46783C17.2937 6.66793 17.1995 6.85302 17.0553 6.99476L14.0355 9.92208C13.8146 10.1264 13.7146 10.429 13.768 10.725L14.5114 14.8404C14.5906 15.3373 14.2614 15.8059 13.768 15.9001C13.5646 15.9326 13.3562 15.8985 13.1728 15.8051L9.45536 13.8683C9.17947 13.729 8.85356 13.729 8.57767 13.8683L4.8602 15.8051C4.40344 16.0477 3.83748 15.8826 3.58326 15.4324C3.48908 15.2531 3.45574 15.0489 3.48658 14.8496L4.23007 10.7333C4.28341 10.4382 4.18256 10.1339 3.96251 9.92959L0.942696 7.00393C0.583452 6.65709 0.572617 6.08597 0.918524 5.72662C0.926026 5.71911 0.934361 5.71078 0.942696 5.70244C1.08606 5.55653 1.27443 5.46398 1.47781 5.4398L5.64537 4.832C5.94544 4.78947 6.20633 4.60355 6.34386 4.33174L8.13257 0.594841C8.29177 0.274678 8.62184 0.0754104 8.98026 0.0837479H9.09195C9.40285 0.121267 9.67374 0.313865 9.81293 0.594841Z" fill="#E21221"/>
<path id="Vector_2" d="M8.99269 13.7644C8.83127 13.7694 8.67402 13.8128 8.53257 13.8904L4.83328 15.8228C4.38065 16.0388 3.83898 15.8712 3.58521 15.4383C3.49119 15.2615 3.45707 15.0588 3.48869 14.8603L4.22755 10.7528C4.27747 10.4542 4.17763 10.1506 3.96046 9.94046L0.939297 7.01556C0.580684 6.66444 0.574027 6.08813 0.925152 5.72867C0.930144 5.72367 0.934304 5.7195 0.939297 5.71533C1.08241 5.57354 1.26712 5.48013 1.46598 5.45094L5.63704 4.83711C5.93907 4.79874 6.20117 4.61025 6.3343 4.3367L8.14733 0.552761C8.31957 0.247511 8.64989 0.0656953 8.99935 0.0848777C8.99269 0.332581 8.99269 13.596 8.99269 13.7644Z" fill="#E21221"/>
</g>
</svg>
