<svg width="24" height="24" viewBox="0 0 24 24" fill="none" xmlns="http://www.w3.org/2000/svg">
<g id="icons Q2">
<g id="Group">
<path id="Vector" d="M20.8365 14.8364L23.8366 14.0182C24.0545 12.6816 24.0545 11.3184 23.8366 9.98178L20.8365 9.16358C20.6937 9.12419 20.5617 9.053 20.4503 8.95534C20.3389 8.85768 20.2511 8.73608 20.1934 8.59965C20.1357 8.46323 20.1096 8.31551 20.117 8.16757C20.1245 8.01962 20.1654 7.87529 20.2365 7.74537L21.7638 5.01804C21.0074 3.93437 20.0656 2.99265 18.982 2.23617L16.2546 3.76347L15.8183 3.87256C15.5989 3.88116 15.383 3.81597 15.205 3.68743C15.027 3.55889 14.8972 3.37441 14.8364 3.16346L14.0182 0.163399C12.6816 -0.0544664 11.3184 -0.0544664 9.98178 0.163399L9.16358 3.16346C9.10276 3.37441 8.973 3.55889 8.79502 3.68743C8.61704 3.81597 8.40112 3.88116 8.18174 3.87256L7.74537 3.76347L5.01804 2.23617C3.93437 2.99265 2.99265 3.93437 2.23617 5.01804L3.76347 7.74537C3.83464 7.87529 3.87549 8.01962 3.88296 8.16757C3.89044 8.31551 3.86434 8.46323 3.80662 8.59965C3.7489 8.73608 3.66106 8.85768 3.54968 8.95534C3.4383 9.053 3.30626 9.12419 3.16346 9.16358L0.163399 9.98178C-0.0544664 11.3184 -0.0544664 12.6816 0.163399 14.0182L3.16346 14.8364C3.30626 14.8758 3.4383 14.947 3.54968 15.0447C3.66106 15.1423 3.7489 15.2639 3.80662 15.4003C3.86434 15.5368 3.89044 15.6845 3.88296 15.8324C3.87549 15.9804 3.83464 16.1247 3.76347 16.2546L2.23617 18.982C2.99265 20.0656 3.93437 21.0074 5.01804 21.7638L7.74537 20.2365L8.18174 20.1274C8.40112 20.1188 8.61704 20.184 8.79502 20.3126C8.973 20.4411 9.10276 20.6256 9.16358 20.8365L9.98178 23.8366C11.3184 24.0545 12.6816 24.0545 14.0182 23.8366L14.8364 20.8365C14.8972 20.6256 15.027 20.4411 15.205 20.3126C15.383 20.184 15.5989 20.1188 15.8183 20.1274L16.2546 20.2365L18.982 21.7638C20.0656 21.0074 21.0074 20.0656 21.7638 18.982L20.2365 16.2546C20.1654 16.1247 20.1245 15.9804 20.117 15.8324C20.1096 15.6845 20.1357 15.5368 20.1934 15.4003C20.2511 15.2639 20.3389 15.1423 20.4503 15.0447C20.5617 14.947 20.6937 14.8758 20.8365 14.8364ZM20.182 12.7091H20.0729C19.6593 12.8703 19.2822 13.1126 18.9637 13.4217C18.6452 13.7308 18.3918 14.1006 18.2183 14.5091C18.0364 14.9233 17.9471 15.3721 17.9565 15.8243C17.9659 16.2765 18.0739 16.7212 18.2729 17.1274H18.3274V17.2365L19.1456 18.6001C19.0291 18.7719 18.881 18.92 18.7092 19.0365L17.3456 18.2183H17.1819C16.7603 18.001 16.2925 17.8887 15.8183 17.891C15.1533 17.8933 14.5048 18.0981 13.9591 18.4781C13.4134 18.8582 12.9964 19.3954 12.7637 20.0183V20.182L12.2727 21.8184H11.7273L11.2909 20.2365V20.1274C11.064 19.4855 10.6425 18.9304 10.0852 18.5393C9.52793 18.1482 8.86255 17.9407 8.18174 17.9456C7.70747 17.9433 7.23965 18.0556 6.81808 18.2729H6.65444L5.29077 19.0911C5.11896 18.9746 4.97087 18.8265 4.8544 18.6547L5.6726 17.291V17.1819H5.72715C5.92614 16.7757 6.03411 16.331 6.04353 15.8788C6.05295 15.4266 5.96359 14.9778 5.78169 14.5637C5.60825 14.1551 5.35482 13.7854 5.03631 13.4762C4.71781 13.1671 4.34067 12.9248 3.92711 12.7637H3.76347L2.18162 12.2727V11.7273L3.76347 11.2909H3.92711C4.34067 11.1297 4.71781 10.8874 5.03631 10.5783C5.35482 10.2692 5.60825 9.89943 5.78169 9.49086C5.96359 9.07674 6.05295 8.62793 6.04353 8.17572C6.03411 7.72351 5.92614 7.27881 5.72715 6.87262H5.6726V6.76353L4.8544 5.39987L5.29077 4.9635L6.65444 5.78169H6.81808C7.23965 5.99898 7.70747 6.11126 8.18174 6.10897C8.84673 6.1067 9.49524 5.90191 10.0409 5.52187C10.5866 5.14184 11.0036 4.60459 11.2363 3.98166V3.81802L11.7273 2.18162H12.2727L12.7091 3.76347V3.87256C12.936 4.51446 13.3575 5.0696 13.9148 5.46068C14.4721 5.85177 15.1375 6.05932 15.8183 6.05443C16.2925 6.05671 16.7603 5.94444 17.1819 5.72715H17.3456L18.7092 4.90895C18.881 5.02541 19.0291 5.1735 19.1456 5.34532L18.3274 6.70898V6.81808H18.2729C18.0739 7.22426 17.9659 7.66897 17.9565 8.12117C17.9471 8.57338 18.0364 9.0222 18.2183 9.43631C18.3918 9.84488 18.6452 10.2146 18.9637 10.5238C19.2822 10.8329 19.6593 11.0752 20.0729 11.2363H20.2365L21.8184 11.6727V12.2182L20.2365 12.6546L20.182 12.7091Z" fill="white"/>
<path id="Vector_2" d="M11.9999 7.09082C11.0289 7.09082 10.0798 7.37874 9.27249 7.91817C8.46518 8.4576 7.83596 9.22431 7.46439 10.1213C7.09283 11.0184 6.99561 12.0055 7.18503 12.9577C7.37445 13.91 7.84201 14.7848 8.52857 15.4713C9.21513 16.1579 10.0899 16.6254 11.0422 16.8149C11.9944 17.0043 12.9815 16.9071 13.8786 16.5355C14.7756 16.1639 15.5423 15.5347 16.0817 14.7274C16.6212 13.9201 16.9091 12.971 16.9091 12C16.9091 10.698 16.3919 9.44934 15.4712 8.52869C14.5506 7.60804 13.3019 7.09082 11.9999 7.09082ZM11.9999 14.7273C11.4605 14.7273 10.9332 14.5674 10.4847 14.2677C10.0362 13.968 9.68659 13.5421 9.48017 13.0437C9.27374 12.5454 9.21973 11.997 9.32497 11.4679C9.4302 10.9389 9.68995 10.4529 10.0714 10.0715C10.4528 9.69007 10.9388 9.43032 11.4678 9.32509C11.9969 9.21985 12.5452 9.27386 13.0436 9.48029C13.5419 9.68671 13.9679 10.0363 14.2676 10.4848C14.5673 10.9333 14.7272 11.4606 14.7272 12C14.7272 12.7233 14.4399 13.417 13.9284 13.9285C13.4169 14.44 12.7232 14.7273 11.9999 14.7273Z" fill="white"/>
</g>
</g>
</svg>
