<svg width="72" height="72" viewBox="0 0 72 72" fill="none" xmlns="http://www.w3.org/2000/svg">
<g id="Group 164262">
<g id="Rectangle 12" filter="url(#filter0_d_74_6009)">
<rect x="10" y="6" width="52" height="52" rx="18" fill="#D2D2D2"/>
</g>
<g id="Group 164083">
<path id="Vector" fill-rule="evenodd" clip-rule="evenodd" d="M46.4643 31.0775C46.4405 31.0772 46.4093 31.0772 46.3585 31.0772H43.3067C41.6375 31.0772 40.3976 32.3793 40.3976 33.8444C40.3976 35.3095 41.6375 36.6116 43.3067 36.6116H46.3585C46.4093 36.6116 46.4405 36.6116 46.4643 36.6113C46.4868 36.6111 46.493 36.6106 46.493 36.6106C46.7346 36.5952 46.8386 36.4242 46.8466 36.3212C46.8466 36.3212 46.8468 36.3136 46.8469 36.3024C46.8472 36.2805 46.8472 36.2515 46.8472 36.2017V31.4871C46.8472 31.4596 46.8472 31.4384 46.8472 31.4212C46.8471 31.4074 46.8471 31.3961 46.8469 31.3864C46.8468 31.3753 46.8466 31.3676 46.8466 31.3676C46.8386 31.2646 46.7346 31.0936 46.4929 31.0782C46.4929 31.0782 46.4872 31.0777 46.4643 31.0775ZM46.378 29.2324C46.4559 29.2324 46.5309 29.2323 46.5999 29.2367C47.6216 29.302 48.5252 30.1103 48.6012 31.2393C48.6063 31.3133 48.6062 31.3932 48.6062 31.4671C48.6062 31.4738 48.6062 31.4805 48.6062 31.4871V36.2017C48.6062 36.2083 48.6062 36.2149 48.6062 36.2217C48.6062 36.2956 48.6063 36.3754 48.6012 36.4495C48.5252 37.5785 47.6216 38.3868 46.5999 38.4521C46.5309 38.4565 46.4559 38.4564 46.378 38.4564C46.3715 38.4564 46.3651 38.4564 46.3585 38.4564H43.3067C40.7911 38.4564 38.6386 36.4546 38.6386 33.8444C38.6386 31.2341 40.7911 29.2324 43.3067 29.2324H46.3585C46.3651 29.2324 46.3715 29.2324 46.378 29.2324Z" fill="white"/>
<path id="Vector_2" fill-rule="evenodd" clip-rule="evenodd" d="M46.3779 29.2324C46.4558 29.2324 46.5308 29.2323 46.5998 29.2367C46.8641 29.2536 47.1205 29.3202 47.3568 29.4293C47.2314 27.4536 46.8859 25.931 45.802 24.7942C44.9244 23.8738 43.8115 23.4653 42.4367 23.2715L42.3871 23.2646C42.3748 23.255 42.3623 23.2458 42.3494 23.2368L37.9689 20.1906C36.4407 19.1279 34.3867 19.1279 32.8585 20.1906L28.4781 23.2368C28.4651 23.2458 28.4525 23.255 28.4402 23.2646L28.3906 23.2715C27.0158 23.4653 25.903 23.8738 25.0254 24.7942C24.1478 25.7146 23.7584 26.8816 23.5735 28.3235C23.3939 29.7246 23.3939 31.5148 23.394 33.775V33.9138C23.3939 36.174 23.3939 37.9642 23.5735 39.3652C23.7584 40.8071 24.1478 41.9743 25.0254 42.8947C25.903 43.815 27.0158 44.2234 28.3906 44.4174C29.7265 44.6057 31.4335 44.6057 33.5885 44.6057H37.2388C39.3939 44.6057 41.1008 44.6057 42.4367 44.4174C43.8115 44.2234 44.9244 43.815 45.802 42.8947C46.8859 41.7578 47.2314 40.2352 47.3568 38.2595C47.1205 38.3686 46.8641 38.4352 46.5998 38.4521C46.5308 38.4565 46.4558 38.4564 46.3779 38.4564H46.3584H45.5781C45.4447 40.1062 45.1427 40.9771 44.5582 41.5902C44.0619 42.1107 43.3821 42.4227 42.2024 42.589C40.9973 42.7589 39.4087 42.7609 37.1727 42.7609H33.6547C31.4187 42.7609 29.8301 42.7589 28.625 42.589C27.4452 42.4227 26.7655 42.1107 26.2692 41.5902C25.7729 41.0697 25.4754 40.3568 25.3168 39.1195C25.1548 37.8556 25.1529 36.1895 25.1529 33.8444C25.1529 31.4993 25.1548 29.8332 25.3168 28.5694C25.4754 27.332 25.7729 26.6191 26.2692 26.0986C26.7655 25.5781 27.4452 25.2662 28.625 25.0998C29.8301 24.9299 31.4187 24.9279 33.6547 24.9279H37.1727C39.4087 24.9279 40.9973 24.9299 42.2024 25.0998C43.3821 25.2662 44.0619 25.5781 44.5582 26.0986C45.1427 26.7117 45.4447 27.5826 45.5781 29.2324H46.3584H46.3779ZM33.5885 23.0831H37.2388C37.8445 23.0831 38.4147 23.0831 38.9513 23.0873L36.9969 21.7281C36.0578 21.0751 34.7695 21.0751 33.8306 21.7281L31.876 23.0873C32.4126 23.0831 32.9829 23.0831 33.5885 23.0831Z" fill="white"/>
<path id="Vector_3" d="M28.9643 28.0029C28.4786 28.0029 28.0848 28.4159 28.0848 28.9253C28.0848 29.4347 28.4786 29.8477 28.9643 29.8477H33.6549C34.1406 29.8477 34.5344 29.4347 34.5344 28.9253C34.5344 28.4159 34.1406 28.0029 33.6549 28.0029H28.9643Z" fill="white"/>
<path id="Vector_4" fill-rule="evenodd" clip-rule="evenodd" d="M44.2083 33.8451C44.2083 34.5243 43.6833 35.075 43.0357 35.075C42.388 35.075 41.863 34.5243 41.863 33.8451C41.863 33.1658 42.388 32.6152 43.0357 32.6152C43.6833 32.6152 44.2083 33.1658 44.2083 33.8451Z" fill="white"/>
</g>
</g>
<defs>
<filter id="filter0_d_74_6009" x="0" y="0" width="72" height="72" filterUnits="userSpaceOnUse" color-interpolation-filters="sRGB">
<feFlood flood-opacity="0" result="BackgroundImageFix"/>
<feColorMatrix in="SourceAlpha" type="matrix" values="0 0 0 0 0 0 0 0 0 0 0 0 0 0 0 0 0 0 127 0" result="hardAlpha"/>
<feOffset dy="4"/>
<feGaussianBlur stdDeviation="5"/>
<feComposite in2="hardAlpha" operator="out"/>
<feColorMatrix type="matrix" values="0 0 0 0 0.45098 0 0 0 0 0.686275 0 0 0 0 0.937255 0 0 0 0.2 0"/>
<feBlend mode="normal" in2="BackgroundImageFix" result="effect1_dropShadow_74_6009"/>
<feBlend mode="normal" in="SourceGraphic" in2="effect1_dropShadow_74_6009" result="shape"/>
</filter>
</defs>
</svg>
