<svg width="24" height="24" viewBox="0 0 24 24" fill="none" xmlns="http://www.w3.org/2000/svg">
<path id="Vector" fill-rule="evenodd" clip-rule="evenodd" d="M6.41861 0C6.88098 0 7.25581 0.38376 7.25581 0.857143V1.72882C7.99482 1.71427 8.809 1.71427 9.70446 1.71429H14.2955C15.191 1.71427 16.0052 1.71427 16.7442 1.72882V0.857143C16.7442 0.38376 17.119 0 17.5814 0C18.0438 0 18.4186 0.38376 18.4186 0.857143V1.80239C18.7087 1.82504 18.9836 1.85351 19.2435 1.88929C20.5523 2.06944 21.6116 2.44901 22.447 3.30427C23.2823 4.15955 23.6531 5.24406 23.8291 6.58398C23.8852 7.01219 23.923 7.47953 23.9483 7.98865C23.9818 8.08121 24 8.18127 24 8.28571C24 8.36494 23.9895 8.44164 23.9699 8.51447C24 9.43097 24 10.4718 24 11.6498V14.0645C24 16.1648 24 17.8283 23.8291 19.1303C23.6531 20.4702 23.2823 21.5547 22.447 22.4101C21.6116 23.2653 20.5523 23.6448 19.2435 23.825C17.9719 24 16.347 24 14.2955 24H9.70447C7.65302 24 6.02812 24 4.75644 23.825C3.4477 23.6448 2.3884 23.2653 1.55301 22.4101C0.717634 21.5547 0.346895 20.4702 0.170947 19.1303C-3.30548e-05 17.8283 -2.18197e-05 16.1648 5.05903e-07 14.0645V11.6498C-1.06569e-05 10.4717 -2.18609e-05 9.43097 0.0301512 8.51448C0.0105047 8.44166 5.05903e-07 8.36494 5.05903e-07 8.28571C5.05903e-07 8.18128 0.0182405 8.0812 0.0516508 7.98864C0.076968 7.47952 0.114709 7.01218 0.170947 6.58398C0.346895 5.24407 0.717634 4.15955 1.55301 3.30427C2.3884 2.44901 3.4477 2.06944 4.75644 1.88929C5.01645 1.85351 5.29123 1.82504 5.5814 1.80239V0.857143C5.5814 0.38376 5.95623 0 6.41861 0ZM1.68903 9.14286C1.67478 9.8888 1.67442 10.7383 1.67442 11.7143V14C1.67442 16.1792 1.67619 17.7274 1.83043 18.9019C1.98142 20.0517 2.26458 20.7142 2.73701 21.1978C3.20943 21.6815 3.85648 21.9714 4.97955 22.1259C6.12671 22.2839 7.6389 22.2857 9.76744 22.2857H14.2326C16.3611 22.2857 17.8733 22.2839 19.0205 22.1259C20.1435 21.9714 20.7906 21.6815 21.263 21.1978C21.7354 20.7142 22.0186 20.0517 22.1695 18.9019C22.3238 17.7274 22.3256 16.1792 22.3256 14V11.7143C22.3256 10.7383 22.3252 9.8888 22.311 9.14286H1.68903ZM22.2344 7.42857H1.7656C1.78348 7.21213 1.80486 7.00712 1.83043 6.8124C1.98142 5.66258 2.26458 5.00013 2.73701 4.51646C3.20943 4.03279 3.85648 3.74288 4.97955 3.5883C6.12671 3.43039 7.6389 3.42857 9.76744 3.42857H14.2326C16.3611 3.42857 17.8733 3.43039 19.0205 3.5883C20.1435 3.74288 20.7906 4.03279 21.263 4.51646C21.7354 5.00013 22.0186 5.66258 22.1695 6.8124C22.1951 7.00712 22.2165 7.21213 22.2344 7.42857Z" fill="black"/>
</svg>
