<svg width="68" height="68" viewBox="0 0 68 68" fill="none" xmlns="http://www.w3.org/2000/svg">
<g id="Group 164235" filter="url(#filter0_d_73_4753)">
<circle id="Ellipse 560" cx="34" cy="34" r="26" fill="#F6F5FA"/>
<g id="icons Q2">
<g id="Group">
<path id="Vector" d="M42.8365 36.8364L45.8366 36.0182C46.0545 34.6816 46.0545 33.3184 45.8366 31.9818L42.8365 31.1636C42.6937 31.1242 42.5617 31.053 42.4503 30.9553C42.3389 30.8577 42.2511 30.7361 42.1934 30.5997C42.1357 30.4632 42.1096 30.3155 42.117 30.1676C42.1245 30.0196 42.1654 29.8753 42.2365 29.7454L43.7638 27.018C43.0074 25.9344 42.0656 24.9926 40.982 24.2362L38.2546 25.7635L37.8183 25.8726C37.5989 25.8812 37.383 25.816 37.205 25.6874C37.027 25.5589 36.8972 25.3744 36.8364 25.1635L36.0182 22.1634C34.6816 21.9455 33.3184 21.9455 31.9818 22.1634L31.1636 25.1635C31.1028 25.3744 30.973 25.5589 30.795 25.6874C30.617 25.816 30.4011 25.8812 30.1817 25.8726L29.7454 25.7635L27.018 24.2362C25.9344 24.9926 24.9926 25.9344 24.2362 27.018L25.7635 29.7454C25.8346 29.8753 25.8755 30.0196 25.883 30.1676C25.8904 30.3155 25.8643 30.4632 25.8066 30.5997C25.7489 30.7361 25.6611 30.8577 25.5497 30.9553C25.4383 31.053 25.3063 31.1242 25.1635 31.1636L22.1634 31.9818C21.9455 33.3184 21.9455 34.6816 22.1634 36.0182L25.1635 36.8364C25.3063 36.8758 25.4383 36.947 25.5497 37.0447C25.6611 37.1423 25.7489 37.2639 25.8066 37.4003C25.8643 37.5368 25.8904 37.6845 25.883 37.8324C25.8755 37.9804 25.8346 38.1247 25.7635 38.2546L24.2362 40.982C24.9926 42.0656 25.9344 43.0074 27.018 43.7638L29.7454 42.2365L30.1817 42.1274C30.4011 42.1188 30.617 42.184 30.795 42.3126C30.973 42.4411 31.1028 42.6256 31.1636 42.8365L31.9818 45.8366C33.3184 46.0545 34.6816 46.0545 36.0182 45.8366L36.8364 42.8365C36.8972 42.6256 37.027 42.4411 37.205 42.3126C37.383 42.184 37.5989 42.1188 37.8183 42.1274L38.2546 42.2365L40.982 43.7638C42.0656 43.0074 43.0074 42.0656 43.7638 40.982L42.2365 38.2546C42.1654 38.1247 42.1245 37.9804 42.117 37.8324C42.1096 37.6845 42.1357 37.5368 42.1934 37.4003C42.2511 37.2639 42.3389 37.1423 42.4503 37.0447C42.5617 36.947 42.6937 36.8758 42.8365 36.8364ZM42.182 34.7091H42.0729C41.6593 34.8703 41.2822 35.1126 40.9637 35.4217C40.6452 35.7308 40.3918 36.1006 40.2183 36.5091C40.0364 36.9233 39.9471 37.3721 39.9565 37.8243C39.9659 38.2765 40.0739 38.7212 40.2729 39.1274H40.3274V39.2365L41.1456 40.6001C41.0291 40.7719 40.881 40.92 40.7092 41.0365L39.3456 40.2183H39.1819C38.7603 40.001 38.2925 39.8887 37.8183 39.891C37.1533 39.8933 36.5048 40.0981 35.9591 40.4781C35.4134 40.8582 34.9964 41.3954 34.7637 42.0183V42.182L34.2727 43.8184H33.7273L33.2909 42.2365V42.1274C33.064 41.4855 32.6425 40.9304 32.0852 40.5393C31.5279 40.1482 30.8625 39.9407 30.1817 39.9456C29.7075 39.9433 29.2397 40.0556 28.8181 40.2729H28.6544L27.2908 41.0911C27.119 40.9746 26.9709 40.8265 26.8544 40.6547L27.6726 39.291V39.1819H27.7271C27.9261 38.7757 28.0341 38.331 28.0435 37.8788C28.0529 37.4266 27.9636 36.9778 27.7817 36.5637C27.6083 36.1551 27.3548 35.7854 27.0363 35.4762C26.7178 35.1671 26.3407 34.9248 25.9271 34.7637H25.7635L24.1816 34.2727V33.7273L25.7635 33.2909H25.9271C26.3407 33.1297 26.7178 32.8874 27.0363 32.5783C27.3548 32.2692 27.6083 31.8994 27.7817 31.4909C27.9636 31.0767 28.0529 30.6279 28.0435 30.1757C28.0341 29.7235 27.9261 29.2788 27.7271 28.8726H27.6726V28.7635L26.8544 27.3999L27.2908 26.9635L28.6544 27.7817H28.8181C29.2397 27.999 29.7075 28.1113 30.1817 28.109C30.8467 28.1067 31.4952 27.9019 32.0409 27.5219C32.5866 27.1418 33.0036 26.6046 33.2363 25.9817V25.818L33.7273 24.1816H34.2727L34.7091 25.7635V25.8726C34.936 26.5145 35.3575 27.0696 35.9148 27.4607C36.4721 27.8518 37.1375 28.0593 37.8183 28.0544C38.2925 28.0567 38.7603 27.9444 39.1819 27.7271H39.3456L40.7092 26.9089C40.881 27.0254 41.0291 27.1735 41.1456 27.3453L40.3274 28.709V28.8181H40.2729C40.0739 29.2243 39.9659 29.669 39.9565 30.1212C39.9471 30.5734 40.0364 31.0222 40.2183 31.4363C40.3918 31.8449 40.6452 32.2146 40.9637 32.5238C41.2822 32.8329 41.6593 33.0752 42.0729 33.2363H42.2365L43.8184 33.6727V34.2182L42.2365 34.6546L42.182 34.7091Z" fill="#8B8A8C"/>
<path id="Vector_2" d="M33.9999 29.0908C33.0289 29.0908 32.0798 29.3787 31.2725 29.9182C30.4652 30.4576 29.836 31.2243 29.4644 32.1213C29.0928 33.0184 28.9956 34.0055 29.185 34.9577C29.3745 35.91 29.842 36.7848 30.5286 37.4713C31.2151 38.1579 32.0899 38.6254 33.0422 38.8149C33.9944 39.0043 34.9815 38.9071 35.8786 38.5355C36.7756 38.1639 37.5423 37.5347 38.0817 36.7274C38.6212 35.9201 38.9091 34.971 38.9091 34C38.9091 32.698 38.3919 31.4493 37.4712 30.5287C36.5506 29.608 35.3019 29.0908 33.9999 29.0908ZM33.9999 36.7273C33.4605 36.7273 32.9332 36.5674 32.4847 36.2677C32.0362 35.968 31.6866 35.5421 31.4802 35.0437C31.2737 34.5454 31.2197 33.997 31.325 33.4679C31.4302 32.9389 31.69 32.4529 32.0714 32.0715C32.4528 31.6901 32.9388 31.4303 33.4678 31.3251C33.9969 31.2199 34.5452 31.2739 35.0436 31.4803C35.5419 31.6867 35.9679 32.0363 36.2676 32.4848C36.5673 32.9333 36.7272 33.4606 36.7272 34C36.7272 34.7233 36.4399 35.417 35.9284 35.9285C35.4169 36.44 34.7232 36.7273 33.9999 36.7273Z" fill="#8B8A8C"/>
</g>
</g>
</g>
<defs>
<filter id="filter0_d_73_4753" x="0" y="0" width="68" height="68" filterUnits="userSpaceOnUse" color-interpolation-filters="sRGB">
<feFlood flood-opacity="0" result="BackgroundImageFix"/>
<feColorMatrix in="SourceAlpha" type="matrix" values="0 0 0 0 0 0 0 0 0 0 0 0 0 0 0 0 0 0 127 0" result="hardAlpha"/>
<feOffset/>
<feGaussianBlur stdDeviation="4"/>
<feComposite in2="hardAlpha" operator="out"/>
<feColorMatrix type="matrix" values="0 0 0 0 0 0 0 0 0 0 0 0 0 0 0 0 0 0 0.2 0"/>
<feBlend mode="normal" in2="BackgroundImageFix" result="effect1_dropShadow_73_4753"/>
<feBlend mode="normal" in="SourceGraphic" in2="effect1_dropShadow_73_4753" result="shape"/>
</filter>
</defs>
</svg>
