<svg width="72" height="72" viewBox="0 0 72 72" fill="none" xmlns="http://www.w3.org/2000/svg">
<g id="Group 164253">
<g id="Rectangle 13" filter="url(#filter0_d_74_5524)">
<rect x="10" y="6" width="52" height="52" rx="18" fill="#FF7279"/>
</g>
<g id="Group 164073">
<path id="Vector" d="M23.3939 35.1524C23.3939 33.3818 23.3939 32.4966 23.8188 31.8608C24.0028 31.5855 24.2391 31.3491 24.5144 31.1652C25.1503 30.7402 26.0356 30.7402 27.806 30.7402C29.5765 30.7402 30.4617 30.7402 31.0977 31.1652C31.373 31.3491 31.6093 31.5855 31.7933 31.8608C32.2182 32.4966 32.2182 33.3818 32.2182 35.1524V40.1948C32.2182 41.9653 32.2182 42.8505 31.7933 43.4863C31.6093 43.7617 31.373 43.998 31.0977 44.182C30.4617 44.6069 29.5765 44.6069 27.806 44.6069C26.0356 44.6069 25.1503 44.6069 24.5144 44.182C24.2391 43.998 24.0028 43.7617 23.8188 43.4863C23.3939 42.8505 23.3939 41.9653 23.3939 40.1948V35.1524Z" fill="white"/>
<path id="Vector_2" fill-rule="evenodd" clip-rule="evenodd" d="M48.6062 29.4794V34.5218C48.6062 39.2758 48.6062 41.6529 47.1293 43.1297C45.6525 44.6067 43.2754 44.6067 38.5214 44.6067C36.3795 44.6067 34.7201 44.6067 33.4082 44.4716C33.8303 43.8099 33.9803 43.1074 34.0465 42.4572C34.1094 41.8382 34.1094 41.0913 34.1092 40.2777V40.1945V35.1521V35.0689C34.1094 34.2553 34.1094 33.5084 34.0465 32.8894C33.9781 32.2178 33.8203 31.4904 33.3657 30.8099C33.0438 30.3281 32.6301 29.9145 32.1484 29.5927C31.4679 29.138 30.7405 28.9802 30.0688 28.9119C29.5915 28.8633 29.0381 28.8523 28.4366 28.8498C28.4395 24.5125 28.5032 22.2816 29.9134 20.8714C31.3903 19.3945 33.7674 19.3945 38.5214 19.3945C43.2754 19.3945 45.6525 19.3945 47.1293 20.8714C48.6062 22.3483 48.6062 24.7253 48.6062 29.4794ZM35.0547 40.8248C35.0547 40.3027 35.478 39.8794 36.0001 39.8794H42.3032C42.8253 39.8794 43.2486 40.3027 43.2486 40.8248C43.2486 41.347 42.8253 41.7703 42.3032 41.7703H36.0001C35.478 41.7703 35.0547 41.347 35.0547 40.8248Z" fill="white"/>
</g>
</g>
<defs>
<filter id="filter0_d_74_5524" x="0" y="0" width="72" height="72" filterUnits="userSpaceOnUse" color-interpolation-filters="sRGB">
<feFlood flood-opacity="0" result="BackgroundImageFix"/>
<feColorMatrix in="SourceAlpha" type="matrix" values="0 0 0 0 0 0 0 0 0 0 0 0 0 0 0 0 0 0 127 0" result="hardAlpha"/>
<feOffset dy="4"/>
<feGaussianBlur stdDeviation="5"/>
<feComposite in2="hardAlpha" operator="out"/>
<feColorMatrix type="matrix" values="0 0 0 0 0.607843 0 0 0 0 0.254902 0 0 0 0 0.937255 0 0 0 0.2 0"/>
<feBlend mode="normal" in2="BackgroundImageFix" result="effect1_dropShadow_74_5524"/>
<feBlend mode="normal" in="SourceGraphic" in2="effect1_dropShadow_74_5524" result="shape"/>
</filter>
</defs>
</svg>
