<svg width="86" height="86" viewBox="0 0 86 86" fill="none" xmlns="http://www.w3.org/2000/svg">
<g id="Group 164243">
<g id="Rectangle 13" filter="url(#filter0_d_73_4523)">
<rect x="10" y="6" width="66" height="66" rx="22" fill="#3ECEE2"/>
</g>
<path id="Vector" d="M43 28.125L42.2044 27.3294C42.3089 27.225 42.433 27.1421 42.5695 27.0856C42.706 27.0291 42.8523 27 43 27V28.125ZM30.625 48.75H55.375V51H30.625V48.75ZM55.75 48.375V29.625H58V48.375H55.75ZM55.375 29.25H43V27H55.375V29.25ZM43.7956 28.9206L40.7956 31.9206L39.2044 30.3294L42.2044 27.3294L43.7956 28.9206ZM40 32.25H30.625V30H40V32.25ZM30.25 32.625V42H28V32.625H30.25ZM30.25 42V48.375H28V42H30.25ZM40.7956 31.9206L29.9206 42.7956L28.3294 41.2044L39.2044 30.3294L40.7956 31.9206ZM29.125 40.875H41.5V43.125H29.125V40.875ZM41.875 40.5V28.125H44.125V40.5H41.875ZM41.5 40.875C41.5995 40.875 41.6948 40.8355 41.7652 40.7652C41.8355 40.6948 41.875 40.5995 41.875 40.5H44.125C44.125 41.9497 42.9497 43.125 41.5 43.125V40.875ZM55.375 48.75C55.4745 48.75 55.5698 48.7105 55.6402 48.6402C55.7105 48.5698 55.75 48.4745 55.75 48.375H58C58 49.8248 56.8248 51 55.375 51V48.75ZM30.625 51C29.1753 51 28 49.8248 28 48.375H30.25C30.25 48.4745 30.2895 48.5698 30.3598 48.6402C30.4302 48.7105 30.5255 48.75 30.625 48.75V51ZM30.625 32.25C30.5255 32.25 30.4302 32.2895 30.3598 32.3598C30.2895 32.4302 30.25 32.5255 30.25 32.625H28C28 31.1753 29.1753 30 30.625 30V32.25ZM55.75 29.625C55.75 29.5255 55.7105 29.4302 55.6402 29.3598C55.5698 29.2895 55.4745 29.25 55.375 29.25V27C56.8248 27 58 28.1753 58 29.625H55.75Z" fill="white"/>
</g>
<defs>
<filter id="filter0_d_73_4523" x="0" y="0" width="86" height="86" filterUnits="userSpaceOnUse" color-interpolation-filters="sRGB">
<feFlood flood-opacity="0" result="BackgroundImageFix"/>
<feColorMatrix in="SourceAlpha" type="matrix" values="0 0 0 0 0 0 0 0 0 0 0 0 0 0 0 0 0 0 127 0" result="hardAlpha"/>
<feOffset dy="4"/>
<feGaussianBlur stdDeviation="5"/>
<feComposite in2="hardAlpha" operator="out"/>
<feColorMatrix type="matrix" values="0 0 0 0 0.243137 0 0 0 0 0.807843 0 0 0 0 0.886275 0 0 0 0.2 0"/>
<feBlend mode="normal" in2="BackgroundImageFix" result="effect1_dropShadow_73_4523"/>
<feBlend mode="normal" in="SourceGraphic" in2="effect1_dropShadow_73_4523" result="shape"/>
</filter>
</defs>
</svg>
