<svg width="72" height="72" viewBox="0 0 72 72" fill="none" xmlns="http://www.w3.org/2000/svg">
<g id="Group 164259">
<g id="Rectangle 13" filter="url(#filter0_d_74_6313)">
<rect x="10" y="6" width="52" height="52" rx="18" fill="#3D3D3D"/>
</g>
<path id="Vector" fill-rule="evenodd" clip-rule="evenodd" d="M29.3562 25.4252C29.4906 24.8661 30.0042 24.4706 30.5956 24.4706H41.4044C41.9958 24.4706 42.5094 24.8661 42.6438 25.4252L43.3052 28.1765H42.3636H29.6364H28.6948L29.3562 25.4252ZM23.2727 30.6471H24.545C23.7461 31.6794 23.2727 32.9625 23.2727 34.3529V35.5882C23.2727 37.2018 24.3352 38.5746 25.8182 39.0833V41.7647C25.8182 42.447 26.388 43 27.0909 43H28.3636C29.0665 43 29.6364 42.447 29.6364 41.7647V39.2941H42.3636V41.7647C42.3636 42.447 42.9334 43 43.6364 43H44.9091C45.612 43 46.1818 42.447 46.1818 41.7647V39.0833C47.6648 38.5746 48.7273 37.2018 48.7273 35.5882V34.3529C48.7273 32.9625 48.2539 31.6794 47.4551 30.6471H48.7273C49.4302 30.6471 50 30.094 50 29.4118C50 28.7295 49.4302 28.1765 48.7273 28.1765H47.4545C46.7927 28.1765 46.2489 28.6667 46.1875 29.2935L46.1485 29.1311L45.1227 24.8638C44.7195 23.1865 43.1788 22 41.4044 22H30.5956C28.8212 22 27.2806 23.1865 26.8773 24.8638L25.8515 29.1311L25.8124 29.2935C25.7511 28.6667 25.2073 28.1765 24.5455 28.1765H23.2727C22.5698 28.1765 22 28.7295 22 29.4118C22 30.094 22.5698 30.6471 23.2727 30.6471ZM29.6364 30.6471C27.5276 30.6471 25.8182 32.3062 25.8182 34.3529V35.5882C25.8182 36.2705 26.388 36.8235 27.0909 36.8235H28.3636H43.6364H44.9091C45.612 36.8235 46.1818 36.2705 46.1818 35.5882V34.3529C46.1818 32.3062 44.4724 30.6471 42.3636 30.6471H29.6364ZM28.3636 33.7353C28.3636 32.712 29.2184 31.8824 30.2727 31.8824C31.3271 31.8824 32.1818 32.712 32.1818 33.7353C32.1818 34.7586 31.3271 35.5882 30.2727 35.5882C29.2184 35.5882 28.3636 34.7586 28.3636 33.7353ZM41.7273 31.8824C40.6729 31.8824 39.8182 32.712 39.8182 33.7353C39.8182 34.7586 40.6729 35.5882 41.7273 35.5882C42.7816 35.5882 43.6364 34.7586 43.6364 33.7353C43.6364 32.712 42.7816 31.8824 41.7273 31.8824Z" fill="white"/>
</g>
<defs>
<filter id="filter0_d_74_6313" x="0" y="0" width="72" height="72" filterUnits="userSpaceOnUse" color-interpolation-filters="sRGB">
<feFlood flood-opacity="0" result="BackgroundImageFix"/>
<feColorMatrix in="SourceAlpha" type="matrix" values="0 0 0 0 0 0 0 0 0 0 0 0 0 0 0 0 0 0 127 0" result="hardAlpha"/>
<feOffset dy="4"/>
<feGaussianBlur stdDeviation="5"/>
<feComposite in2="hardAlpha" operator="out"/>
<feColorMatrix type="matrix" values="0 0 0 0 0.607843 0 0 0 0 0.254902 0 0 0 0 0.937255 0 0 0 0.2 0"/>
<feBlend mode="normal" in2="BackgroundImageFix" result="effect1_dropShadow_74_6313"/>
<feBlend mode="normal" in="SourceGraphic" in2="effect1_dropShadow_74_6313" result="shape"/>
</filter>
</defs>
</svg>
