<svg width="52" height="52" viewBox="0 0 52 52" fill="none" xmlns="http://www.w3.org/2000/svg">
<g id="Group 164265">
<rect id="Rectangle 23127" width="52" height="52" rx="18" fill="#3CCDE1"/>
<g id="Group">
<g id="Group_2">
<g id="Group_3">
<path id="Vector" d="M27.6844 30.63C27.582 30.5214 27.4524 30.4403 27.3185 30.3726C27.0269 30.2255 26.708 30.1362 26.3914 30.0557V32.4299C26.9053 32.3737 27.4953 32.1932 27.7652 31.7289C27.894 31.5072 27.9196 31.2347 27.8672 30.9878C27.8387 30.854 27.7799 30.7312 27.6844 30.63Z" fill="white"/>
</g>
<g id="Group_4">
<path id="Vector_2" d="M27.7634 31.7325C27.7639 31.7318 27.7641 31.7313 27.7646 31.7305C27.7642 31.7311 27.7638 31.7318 27.7634 31.7325Z" fill="white"/>
</g>
<g id="Group_5">
<path id="Vector_3" d="M23.9814 26.8358C23.8931 26.9606 23.8376 27.1024 23.8223 27.2532C23.807 27.4043 23.8156 27.5723 23.8749 27.7145C23.9314 27.8501 24.0497 27.9501 24.1718 28.0307C24.3088 28.1209 24.4595 28.1913 24.613 28.251C24.7417 28.3012 24.8866 28.3491 25.0427 28.3955V26.2471C24.6483 26.3285 24.2174 26.5024 23.9814 26.8358Z" fill="white"/>
</g>
<g id="Group_6">
<path id="Vector_4" d="M27.7758 31.7129C27.7726 31.7186 27.7691 31.7246 27.7657 31.7309C27.7697 31.7236 27.7728 31.7182 27.7758 31.7129Z" fill="white"/>
</g>
<g id="Group_7">
<path id="Vector_5" d="M27.7885 31.6905C27.7892 31.6892 27.7893 31.689 27.7885 31.6905V31.6905Z" fill="white"/>
</g>
<g id="Group_8">
<path id="Vector_6" d="M27.2563 18.775C29.3427 17.0789 30.7369 13.2578 29.8789 13.0907C28.7389 12.8685 26.2633 13.8426 25.0668 14.0142C23.3697 14.2125 21.5213 12.2334 20.4838 13.3366C19.6402 14.2335 21.0886 17.4955 23.3546 18.9166C16.5941 22.1319 7.09173 38.2734 23.6691 39.4446C46.6067 41.0652 35.121 21.9083 27.2563 18.775ZM29.2262 31.5049C29.1556 32.1342 28.811 32.7033 28.2958 33.0896C27.7519 33.4976 27.0697 33.6873 26.3918 33.7405V34.4358C26.3918 34.6218 26.3079 34.8017 26.164 34.9249C25.9661 35.0943 25.6755 35.1361 25.4354 35.029C25.1983 34.9235 25.0426 34.6882 25.0426 34.4358V33.6758C24.9264 33.6545 24.811 33.629 24.6969 33.5988C24.0634 33.4303 23.4758 33.102 23.0466 32.6162C22.8327 32.3741 22.6584 32.0994 22.5379 31.8028C22.5064 31.7253 22.4783 31.6463 22.4537 31.5665C22.4314 31.4942 22.4085 31.4208 22.4005 31.3455C22.3872 31.2191 22.4131 31.0902 22.4739 30.9777C22.599 30.7462 22.8626 30.6063 23.1317 30.6296C23.3966 30.6523 23.6287 30.8302 23.7121 31.0745C23.7378 31.1498 23.7552 31.2269 23.784 31.3013C23.8126 31.3753 23.8472 31.4472 23.8878 31.5156C23.9679 31.6504 24.0683 31.7747 24.184 31.8825C24.4224 32.1048 24.726 32.2493 25.0426 32.3352V29.752C24.4236 29.5969 23.7847 29.3966 23.2735 29.012C23.0251 28.825 22.8144 28.5927 22.6763 28.3177C22.5306 28.0275 22.4703 27.7042 22.4678 27.383C22.4653 27.057 22.5294 26.7338 22.6699 26.4367C22.8016 26.1585 22.9911 25.9088 23.2235 25.7017C23.7205 25.2591 24.3806 25.0122 25.0427 24.9215V24.8647V24.1998C25.0427 24.0138 25.1266 23.8338 25.2705 23.7106C25.4684 23.5413 25.759 23.4995 25.9991 23.6065C26.2361 23.7121 26.3919 23.9473 26.3919 24.1998V24.8647V24.9176C26.4801 24.9284 26.5681 24.9412 26.6556 24.9566C27.3058 25.0704 27.9417 25.3302 28.4171 25.7838C28.6424 25.9987 28.8267 26.2547 28.9564 26.5339C28.9926 26.6117 29.0243 26.6914 29.0517 26.7727C29.0773 26.8484 29.103 26.9264 29.1152 27.0055C29.1346 27.1317 29.1148 27.2621 29.0589 27.3776C28.9446 27.6142 28.6881 27.7648 28.4183 27.7536C28.1532 27.7425 27.9129 27.5754 27.818 27.3356C27.7897 27.2643 27.7756 27.1887 27.7468 27.1176C27.7176 27.0456 27.68 26.9769 27.6365 26.912C27.5521 26.7859 27.4427 26.6777 27.3178 26.5886C27.0474 26.3953 26.7194 26.2947 26.3917 26.2384V28.7104C26.7812 28.8007 27.171 28.8991 27.5442 29.0415C28.1082 29.2567 28.6426 29.5867 28.9505 30.1071C28.9027 30.026 28.8562 29.947 28.9521 30.1098C29.0462 30.2697 29.0012 30.1935 28.954 30.1133C29.1989 30.531 29.2794 31.0305 29.2262 31.5049Z" fill="white"/>
</g>
<g id="Group_9">
<path id="Vector_7" d="M27.7559 31.7461C27.752 31.7531 27.7485 31.7593 27.7458 31.764C27.7482 31.7599 27.7516 31.7538 27.7559 31.7461Z" fill="white"/>
</g>
</g>
</g>
</g>
</svg>
