<svg width="52" height="52" viewBox="0 0 52 52" fill="none" xmlns="http://www.w3.org/2000/svg">
<g id="Group 164091">
<rect id="Rectangle 23127" width="52" height="52" rx="18" fill="#9B41F0"/>
<path id="Vector" d="M37.5542 21.7507C37.3178 21.5178 37.0821 21.3109 36.8457 21.1195V19.2123L36.674 19.0859C36.2637 18.7881 35.8435 18.5587 35.4169 18.3604V16.4852L35.177 16.3848C32.0268 15.0706 28.8893 16.6177 25.8541 18.1154C22.1127 19.9621 18.5785 21.7065 15.0088 18.5241L14.4445 18.0211V31.2539L14.59 31.3829C15.0052 31.7543 15.4361 32.0616 15.8719 32.3265V34.1904L16.0785 34.3082C16.476 34.5307 16.8806 34.6943 17.2923 34.8302C17.2923 35.1462 17.2923 35.4622 17.2923 35.7791C24.0476 38.1001 30.8009 27.2481 37.5556 33.9151C37.5549 29.8583 37.5542 25.8049 37.5542 21.7507ZM15.8719 21.0797L15.8712 31.3552C15.6292 31.1915 15.3892 31.0123 15.1536 30.8132L15.1543 19.6902C18.8546 22.5047 22.5457 20.6832 26.121 18.9188C29.0845 17.4557 31.8891 16.0714 34.7071 17.1112V18.0635C34.054 17.8479 33.3768 17.7388 32.6663 17.7388C30.3729 17.7388 28.0752 18.8721 25.8549 19.9681C23.697 21.0321 21.466 22.1333 19.3096 22.1333C18.2598 22.1333 17.3001 21.8814 16.3752 21.3628L15.8719 21.0797ZM27.4236 31.2998C25.5376 32.2192 24.0079 31.1015 24.0079 28.7805C24.0086 26.5001 25.5369 23.8908 27.4236 22.9714C29.3089 22.0441 30.8385 23.5471 30.8392 25.8586C30.8371 28.1467 29.3103 30.3751 27.4236 31.2998ZM36.1359 20.6062C29.854 16.5484 23.5728 25.7746 17.2908 23.6181C17.2908 27.0602 17.2908 30.4998 17.2916 33.9403C17.0516 33.8528 16.8153 33.7533 16.581 33.6338L16.5817 22.4069C17.447 22.8051 18.3435 22.9999 19.3096 22.9999C21.6037 22.9999 23.9007 21.8667 26.121 20.7715C28.2796 19.7075 30.5092 18.6063 32.6663 18.6063C33.9156 18.6063 35.0527 18.9682 36.1359 19.7101V20.6062ZM27.6869 25.2041C27.6869 25.6794 27.6869 26.1573 27.6869 26.6343C27.7451 26.6092 27.8047 26.5832 27.8629 26.5616C28.4521 26.3304 28.8489 26.3001 29.0554 26.4308C29.262 26.5616 29.3663 26.9087 29.3663 27.4697C29.3663 28.0749 29.2542 28.5389 29.0278 28.8696C28.8049 29.2012 28.4109 29.4817 27.8502 29.7362C27.7962 29.7605 27.743 29.7882 27.6876 29.8141C27.6876 30.028 27.6876 30.241 27.6876 30.4548C27.5102 30.537 27.3313 30.6193 27.1545 30.7067C27.1545 30.4929 27.1545 30.2799 27.1545 30.0661C27.1041 30.0886 27.053 30.112 27.0041 30.1345C26.4468 30.4046 26.0543 30.4834 25.8272 30.3613C25.6 30.241 25.4872 29.8912 25.4872 29.3146C25.4879 29.2488 25.4886 29.1856 25.49 29.1172C25.7534 28.9882 26.0174 28.8549 26.2807 28.7268C26.2807 28.7605 26.28 28.7943 26.28 28.8272C26.2807 29.1761 26.3269 29.3813 26.4192 29.4384C26.5107 29.4938 26.7173 29.4462 27.036 29.2912C27.0758 29.2731 27.1134 29.2566 27.1538 29.2376C27.1538 28.7216 27.1538 28.2056 27.1538 27.6888C26.5299 27.9883 26.104 28.0905 25.8769 27.9831C25.649 27.8758 25.5347 27.5199 25.5347 26.9174C25.5347 26.333 25.6504 25.8742 25.8783 25.5469C26.1061 25.2188 26.5327 24.8976 27.1538 24.5989C27.1538 24.4128 27.1538 24.2275 27.1538 24.0423C27.3313 23.9566 27.5087 23.8735 27.6862 23.7912C27.6862 23.9765 27.6862 24.1617 27.6862 24.347C28.2796 24.0734 28.6835 24.0111 28.9035 24.1306C29.1229 24.25 29.2308 24.5946 29.2308 25.1556C29.2308 25.1989 29.2308 25.243 29.2308 25.2855C28.9767 25.3816 28.7204 25.4846 28.4656 25.5937C28.4649 25.5599 28.4635 25.5261 28.4613 25.4924C28.4627 25.069 28.2448 24.9478 27.8111 25.1452C27.77 25.166 27.7288 25.185 27.6869 25.2041ZM27.1524 25.4508C27.1141 25.4699 27.0779 25.4898 27.0395 25.5097C26.5704 25.7365 26.3361 26.0794 26.3368 26.5321C26.3368 27.0066 26.5689 27.1278 27.036 26.9027C27.0403 26.9001 27.08 26.8845 27.1538 26.8533C27.1531 26.385 27.1531 25.9183 27.1524 25.4508ZM27.6869 28.9882C27.7245 28.9709 27.7614 28.9536 27.8005 28.9372C28.3094 28.7025 28.5621 28.3363 28.5621 27.8013C28.5614 27.5104 28.506 27.3451 28.3939 27.2983C28.2803 27.255 28.0461 27.3113 27.6869 27.4749C27.6869 27.9796 27.6869 28.4844 27.6869 28.9882Z" fill="white"/>
</g>
</svg>
