<svg width="72" height="72" viewBox="0 0 72 72" fill="none" xmlns="http://www.w3.org/2000/svg">
<g id="Group 164240">
<g id="Rectangle 12" filter="url(#filter0_d_74_6120)">
<rect x="10" y="6" width="52" height="52" rx="18" fill="#F790CA"/>
</g>
<path id="Vector" fill-rule="evenodd" clip-rule="evenodd" d="M36 24.4657C33.8007 21.8393 30.1257 21.0276 27.3702 23.4326C24.6146 25.8377 24.2267 29.8587 26.3906 32.7032C28.1898 35.0681 33.6348 40.056 35.4193 41.6704C35.6189 41.8511 35.7188 41.9414 35.8353 41.9768C35.9368 42.0077 36.048 42.0077 36.1497 41.9768C36.2662 41.9414 36.3659 41.8511 36.5657 41.6704C38.3502 40.056 43.7951 35.0681 45.5943 32.7032C47.7583 29.8587 47.4177 25.8124 44.6147 23.4326C41.8118 21.0529 38.1993 21.8393 36 24.4657Z" fill="white"/>
</g>
<defs>
<filter id="filter0_d_74_6120" x="0" y="0" width="72" height="72" filterUnits="userSpaceOnUse" color-interpolation-filters="sRGB">
<feFlood flood-opacity="0" result="BackgroundImageFix"/>
<feColorMatrix in="SourceAlpha" type="matrix" values="0 0 0 0 0 0 0 0 0 0 0 0 0 0 0 0 0 0 127 0" result="hardAlpha"/>
<feOffset dy="4"/>
<feGaussianBlur stdDeviation="5"/>
<feComposite in2="hardAlpha" operator="out"/>
<feColorMatrix type="matrix" values="0 0 0 0 0.45098 0 0 0 0 0.686275 0 0 0 0 0.937255 0 0 0 0.2 0"/>
<feBlend mode="normal" in2="BackgroundImageFix" result="effect1_dropShadow_74_6120"/>
<feBlend mode="normal" in="SourceGraphic" in2="effect1_dropShadow_74_6120" result="shape"/>
</filter>
</defs>
</svg>
