<svg width="86" height="86" viewBox="0 0 86 86" fill="none" xmlns="http://www.w3.org/2000/svg">
<g id="Group 164241">
<g id="Rectangle 12" filter="url(#filter0_d_73_4787)">
<rect x="10" y="6" width="66" height="66" rx="22" fill="#FF7279"/>
</g>
<g id="Group">
<path id="Vector" d="M55.7741 45.5397L55.7766 45.5365C54.5931 44.3998 53.0909 42.7425 53.0909 37.9643C53.0909 37.9554 53.0904 37.9481 53.0904 37.9395V34.2545C53.0904 29.7861 49.833 26.0508 45.4747 25.1131C45.4752 25.0951 45.4777 25.0774 45.4777 25.0593C45.4777 23.9221 44.5176 23 43.3336 23C42.1495 23 41.1893 23.9221 41.1893 25.0593C41.1893 25.0774 41.1917 25.0951 41.192 25.1132C36.8336 26.0508 33.5761 29.7861 33.5761 34.2545V37.9643C33.5761 42.7424 32.0737 44.3998 30.8902 45.5365L30.8927 45.5394C30.3449 46.0275 30 46.7227 30 47.497C30 48.9731 31.2462 50.1697 32.7829 50.1697H53.8838C55.4207 50.1697 56.6667 48.9731 56.6667 47.497C56.6668 46.723 56.3218 46.0275 55.7741 45.5397Z" fill="#FFA3A7"/>
<path id="Vector_2" d="M46.4628 50.9561H40.2043C39.9057 50.9561 39.6248 51.0916 39.4466 51.322C39.2684 51.552 39.2141 51.8492 39.3003 52.1239C39.8221 53.7882 41.4305 55.0007 43.3337 55.0007C45.2369 55.0007 46.845 53.7882 47.3669 52.1239C47.4532 51.8492 47.3983 51.5519 47.2205 51.322C47.0422 51.0916 46.7614 50.9561 46.4628 50.9561Z" fill="white"/>
</g>
</g>
<defs>
<filter id="filter0_d_73_4787" x="0" y="0" width="86" height="86" filterUnits="userSpaceOnUse" color-interpolation-filters="sRGB">
<feFlood flood-opacity="0" result="BackgroundImageFix"/>
<feColorMatrix in="SourceAlpha" type="matrix" values="0 0 0 0 0 0 0 0 0 0 0 0 0 0 0 0 0 0 127 0" result="hardAlpha"/>
<feOffset dy="4"/>
<feGaussianBlur stdDeviation="5"/>
<feComposite in2="hardAlpha" operator="out"/>
<feColorMatrix type="matrix" values="0 0 0 0 0.94902 0 0 0 0 0.294118 0 0 0 0 0.52549 0 0 0 0.2 0"/>
<feBlend mode="normal" in2="BackgroundImageFix" result="effect1_dropShadow_73_4787"/>
<feBlend mode="normal" in="SourceGraphic" in2="effect1_dropShadow_73_4787" result="shape"/>
</filter>
</defs>
</svg>
