<svg width="116" height="116" viewBox="0 0 116 116" fill="none" xmlns="http://www.w3.org/2000/svg">
<g id="Group 164236" filter="url(#filter0_d_73_4610)">
<circle id="Ellipse 561" cx="58" cy="58" r="50" fill="#F6F5FA"/>
<g id="frame">
<path id="Vector" d="M57.9996 33.001C51.4496 33.001 46.1246 38.326 46.1246 44.876C46.1246 51.301 51.1496 56.501 57.6996 56.726C57.8996 56.701 58.0996 56.701 58.2496 56.726C58.2996 56.726 58.3246 56.726 58.3746 56.726C58.3996 56.726 58.3996 56.726 58.4246 56.726C64.8246 56.501 69.8496 51.301 69.8746 44.876C69.8746 38.326 64.5496 33.001 57.9996 33.001Z" fill="#527697"/>
<path id="Vector_2" d="M70.6999 63.3752C63.7249 58.7252 52.3499 58.7252 45.3249 63.3752C42.1499 65.5002 40.3999 68.3752 40.3999 71.4502C40.3999 74.5252 42.1499 77.3752 45.2999 79.4752C48.7999 81.8252 53.3999 83.0002 57.9999 83.0002C62.5999 83.0002 67.1999 81.8252 70.6999 79.4752C73.8499 77.3502 75.5999 74.5002 75.5999 71.4002C75.5749 68.3252 73.8499 65.4752 70.6999 63.3752Z" fill="#527697"/>
</g>
</g>
<defs>
<filter id="filter0_d_73_4610" x="0" y="0" width="116" height="116" filterUnits="userSpaceOnUse" color-interpolation-filters="sRGB">
<feFlood flood-opacity="0" result="BackgroundImageFix"/>
<feColorMatrix in="SourceAlpha" type="matrix" values="0 0 0 0 0 0 0 0 0 0 0 0 0 0 0 0 0 0 127 0" result="hardAlpha"/>
<feOffset/>
<feGaussianBlur stdDeviation="4"/>
<feComposite in2="hardAlpha" operator="out"/>
<feColorMatrix type="matrix" values="0 0 0 0 0 0 0 0 0 0 0 0 0 0 0 0 0 0 0.2 0"/>
<feBlend mode="normal" in2="BackgroundImageFix" result="effect1_dropShadow_73_4610"/>
<feBlend mode="normal" in="SourceGraphic" in2="effect1_dropShadow_73_4610" result="shape"/>
</filter>
</defs>
</svg>
