<svg width="68" height="68" viewBox="0 0 68 68" fill="none" xmlns="http://www.w3.org/2000/svg">
<g filter="url(#filter0_d_73_4765)">
<circle cx="34" cy="34" r="26" fill="#F6F5FA"/>
<path d="M34 20.667C30.5066 20.667 27.6666 23.507 27.6666 27.0003C27.6666 30.427 30.3466 33.2003 33.84 33.3203C33.9466 33.307 34.0533 33.307 34.1333 33.3203C34.16 33.3203 34.1733 33.3203 34.2 33.3203C34.2133 33.3203 34.2133 33.3203 34.2266 33.3203C37.64 33.2003 40.32 30.427 40.3333 27.0003C40.3333 23.507 37.4933 20.667 34 20.667Z" fill="#8B8A8C"/>
<path d="M40.7733 36.8668C37.0533 34.3868 30.9866 34.3868 27.2399 36.8668C25.5466 38.0002 24.6133 39.5335 24.6133 41.1735C24.6133 42.8135 25.5466 44.3335 27.2266 45.4535C29.0933 46.7068 31.5466 47.3335 33.9999 47.3335C36.4533 47.3335 38.9066 46.7068 40.7733 45.4535C42.4533 44.3202 43.3866 42.8002 43.3866 41.1468C43.3733 39.5068 42.4533 37.9868 40.7733 36.8668ZM36.6666 42.1735H34.9999V43.8402C34.9999 44.3868 34.5466 44.8402 33.9999 44.8402C33.4533 44.8402 32.9999 44.3868 32.9999 43.8402V42.1735H31.3333C30.7866 42.1735 30.3333 41.7202 30.3333 41.1735C30.3333 40.6268 30.7866 40.1735 31.3333 40.1735H32.9999V38.5068C32.9999 37.9602 33.4533 37.5068 33.9999 37.5068C34.5466 37.5068 34.9999 37.9602 34.9999 38.5068V40.1735H36.6666C37.2133 40.1735 37.6666 40.6268 37.6666 41.1735C37.6666 41.7202 37.2133 42.1735 36.6666 42.1735Z" fill="#8B8A8C"/>
</g>
<defs>
<filter id="filter0_d_73_4765" x="0" y="0" width="68" height="68" filterUnits="userSpaceOnUse" color-interpolation-filters="sRGB">
<feFlood flood-opacity="0" result="BackgroundImageFix"/>
<feColorMatrix in="SourceAlpha" type="matrix" values="0 0 0 0 0 0 0 0 0 0 0 0 0 0 0 0 0 0 127 0" result="hardAlpha"/>
<feOffset/>
<feGaussianBlur stdDeviation="4"/>
<feComposite in2="hardAlpha" operator="out"/>
<feColorMatrix type="matrix" values="0 0 0 0 0 0 0 0 0 0 0 0 0 0 0 0 0 0 0.2 0"/>
<feBlend mode="normal" in2="BackgroundImageFix" result="effect1_dropShadow_73_4765"/>
<feBlend mode="normal" in="SourceGraphic" in2="effect1_dropShadow_73_4765" result="shape"/>
</filter>
</defs>
</svg>
