<svg width="52" height="52" viewBox="0 0 52 52" fill="none" xmlns="http://www.w3.org/2000/svg">
<g id="Group 164265">
<rect id="Rectangle 23127" width="52" height="52" rx="18" fill="#4E5EEA"/>
<g id="Group">
<path id="Vector" d="M14.7201 19.6744H37.2792C37.9577 19.6744 38.2031 18.7527 37.6193 18.3968L26.3399 12.0958C26.1301 11.9681 25.8692 11.9681 25.6597 12.0958L14.3801 18.3965C13.7963 18.7527 14.0416 19.6744 14.7201 19.6744Z" fill="white"/>
<path id="Vector_2" d="M16.8882 33.0295C16.628 33.0295 16.417 33.2467 16.417 33.5147C16.417 33.7829 16.6279 34.0001 16.8882 34.0001H19.9634C20.2237 34.0001 20.4347 33.7829 20.4347 33.5147C20.4347 33.2467 20.2238 33.0295 19.9634 33.0295H19.5063V22.3143H19.9634C20.2237 22.3143 20.4347 22.0972 20.4347 21.8292C20.4347 21.5612 20.2238 21.3438 19.9634 21.3438H16.8882C16.628 21.3438 16.417 21.5612 16.417 21.8292C16.417 22.0971 16.6279 22.3143 16.8882 22.3143H17.3453V33.0295H16.8882Z" fill="white"/>
<path id="Vector_3" d="M32.0357 33.0295C31.7754 33.0295 31.5645 33.2467 31.5645 33.5147C31.5645 33.7829 31.7754 34.0001 32.0357 34.0001H35.1109C35.3714 34.0001 35.5824 33.7829 35.5824 33.5147C35.5824 33.2467 35.3715 33.0295 35.1109 33.0295H34.6541V22.3143H35.1109C35.3714 22.3143 35.5824 22.0972 35.5824 21.8292C35.5824 21.5612 35.3715 21.3438 35.1109 21.3438H32.0357C31.7754 21.3438 31.5645 21.5612 31.5645 21.8292C31.5645 22.0971 31.7754 22.3143 32.0357 22.3143H32.4928V33.0295H32.0357Z" fill="white"/>
<path id="Vector_4" d="M37.6985 35.4834H14.3008V37.2564H37.6985V35.4834Z" fill="white"/>
<path id="Vector_5" d="M40 38.2275H12V40.0002H40V38.2275Z" fill="white"/>
<path id="Vector_6" d="M25.3699 23.0654V23.887C24.9516 23.9352 24.5758 24.0203 24.2425 24.1425C23.9092 24.265 23.626 24.4258 23.3936 24.6253C23.161 24.825 22.983 25.0616 22.859 25.3354C22.7352 25.6091 22.6729 25.9218 22.6729 26.2728C22.6729 26.7036 22.7532 27.0546 22.9134 27.3261C23.0733 27.5975 23.2817 27.8155 23.5375 27.9804C23.7932 28.1453 24.0812 28.269 24.4015 28.3514C24.7219 28.4336 25.0448 28.4989 25.3702 28.5468V30.2939C25.1068 30.2887 24.864 30.2742 24.6418 30.2501C24.4196 30.2263 24.2078 30.1944 24.0061 30.1546C23.8048 30.1145 23.6085 30.0669 23.4173 30.0109C23.2259 29.9551 23.0299 29.8898 22.8282 29.8155V31.3794C23.1226 31.5176 23.4932 31.6253 23.9401 31.7022C24.3868 31.7795 24.8637 31.8259 25.3699 31.8419V32.6237H26.6022V31.8021C27.4549 31.7061 28.112 31.4642 28.5745 31.0761C29.037 30.6876 29.2685 30.1532 29.2685 29.4721C29.2685 29.0465 29.1895 28.6982 29.0319 28.427C28.874 28.1558 28.6701 27.9361 28.4194 27.7686C28.1687 27.6011 27.8847 27.473 27.5672 27.3856C27.2494 27.298 26.9279 27.2274 26.6022 27.1743V25.4028C27.2894 25.435 28.0308 25.584 28.8266 25.8496V24.2703C28.5012 24.1533 28.1433 24.0612 27.753 23.9948C27.363 23.9283 26.9795 23.8847 26.6022 23.8633V23.0655L25.3699 23.0654ZM25.3699 26.9748C25.034 26.911 24.7833 26.821 24.6183 26.7037C24.4528 26.587 24.3702 26.4166 24.3702 26.193C24.3702 25.9962 24.4427 25.833 24.5873 25.7024C24.732 25.5723 24.9928 25.4858 25.3699 25.4431V26.9748ZM27.3269 28.9977C27.4849 29.1124 27.5635 29.2811 27.5635 29.5046C27.5635 29.909 27.2429 30.1535 26.6025 30.2383V28.7382C26.9279 28.7968 27.1693 28.8834 27.3269 28.9977Z" fill="white"/>
</g>
</g>
</svg>
