<svg width="86" height="86" viewBox="0 0 86 86" fill="none" xmlns="http://www.w3.org/2000/svg">
<g id="Group 164240">
<g id="Rectangle 12" filter="url(#filter0_d_73_4780)">
<rect x="10" y="6" width="66" height="66" rx="22" fill="#F24B86"/>
</g>
<g id="Group 164083">
<path id="Vector" fill-rule="evenodd" clip-rule="evenodd" d="M56.2816 37.8301C56.2514 37.8297 56.2118 37.8297 56.1474 37.8297H52.2739C50.1554 37.8297 48.5816 39.4823 48.5816 41.3419C48.5816 43.2015 50.1554 44.8541 52.2739 44.8541H56.1474C56.2118 44.8541 56.2514 44.8541 56.2816 44.8538C56.3102 44.8535 56.3181 44.8529 56.3181 44.8529C56.6247 44.8334 56.7567 44.6162 56.7669 44.4856C56.7669 44.4856 56.7672 44.4759 56.7673 44.4617C56.7676 44.4339 56.7676 44.3971 56.7676 44.3339V38.35C56.7676 38.3151 56.7676 38.2882 56.7676 38.2664C56.7675 38.2489 56.7675 38.2345 56.7673 38.2222C56.7672 38.2081 56.7669 38.1983 56.7669 38.1983C56.7567 38.0676 56.6247 37.8505 56.318 37.831C56.318 37.831 56.3107 37.8304 56.2816 37.8301ZM56.1721 35.4883C56.2709 35.4883 56.3662 35.4881 56.4537 35.4937C57.7505 35.5766 58.8975 36.6025 58.9939 38.0355C59.0003 38.1295 59.0002 38.2308 59.0002 38.3246C59.0002 38.3332 59.0002 38.3416 59.0002 38.35V44.3339C59.0002 44.3423 59.0002 44.3507 59.0002 44.3593C59.0002 44.4531 59.0003 44.5544 58.9939 44.6484C58.8975 46.0814 57.7505 47.1072 56.4537 47.1901C56.3662 47.1958 56.2709 47.1956 56.1721 47.1956C56.1639 47.1956 56.1557 47.1956 56.1474 47.1956H52.2739C49.0811 47.1956 46.349 44.655 46.349 41.3419C46.349 38.0289 49.0811 35.4883 52.2739 35.4883H56.1474C56.1557 35.4883 56.1639 35.4883 56.1721 35.4883Z" fill="white"/>
<path id="Vector_2" fill-rule="evenodd" clip-rule="evenodd" d="M56.1719 35.4878C56.2708 35.4878 56.366 35.4876 56.4535 35.4933C56.789 35.5147 57.1145 35.5993 57.4144 35.7377C57.2552 33.2301 56.8167 31.2976 55.441 29.8546C54.3271 28.6864 52.9146 28.168 51.1697 27.922L51.1067 27.9132C51.0911 27.9011 51.0752 27.8893 51.0588 27.8779L45.499 24.0116C43.5593 22.6628 40.9523 22.6628 39.0127 24.0116L33.4529 27.8779C33.4365 27.8893 33.4205 27.9011 33.4049 27.9132L33.3419 27.922C31.5969 28.168 30.1845 28.6864 29.0707 29.8546C27.9568 31.0228 27.4625 32.5041 27.2279 34.3342C27 36.1125 27 38.3847 27 41.2534V41.4295C27 44.2983 27 46.5704 27.2279 48.3487C27.4625 50.1788 27.9568 51.6601 29.0707 52.8284C30.1845 53.9964 31.5969 54.5148 33.3419 54.761C35.0375 55 37.204 55 39.9393 55H44.5723C47.3076 55 49.4741 55 51.1697 54.761C52.9146 54.5148 54.3271 53.9964 55.441 52.8284C56.8167 51.3854 57.2552 49.4529 57.4144 46.9452C57.1145 47.0837 56.789 47.1683 56.4535 47.1897C56.366 47.1953 56.2708 47.1951 56.1719 47.1951H56.1472H55.1569C54.9875 49.2892 54.6042 50.3945 53.8623 51.1726C53.2324 51.8332 52.3696 52.2293 50.8723 52.4403C49.3427 52.656 47.3264 52.6585 44.4884 52.6585H40.0233C37.1852 52.6585 35.1689 52.656 33.6394 52.4403C32.142 52.2293 31.2792 51.8332 30.6493 51.1726C30.0194 50.512 29.6419 49.6071 29.4406 48.0368C29.2349 46.4326 29.2326 44.3179 29.2326 41.3415C29.2326 38.365 29.2349 36.2503 29.4406 34.6462C29.6419 33.0757 30.0194 32.1709 30.6493 31.5103C31.2792 30.8497 32.142 30.4537 33.6394 30.2426C35.1689 30.0269 37.1852 30.0244 40.0233 30.0244H44.4884C47.3264 30.0244 49.3427 30.0269 50.8723 30.2426C52.3696 30.4537 53.2324 30.8497 53.8623 31.5103C54.6042 32.2885 54.9875 33.3938 55.1569 35.4878H56.1472H56.1719ZM39.9393 27.6829H44.5723C45.3411 27.6829 46.0649 27.6829 46.7459 27.6882L44.2653 25.9631C43.0734 25.1343 41.4382 25.1343 40.2465 25.9631L37.7657 27.6882C38.4467 27.6829 39.1705 27.6829 39.9393 27.6829Z" fill="white"/>
<path id="Vector_3" d="M34.07 33.9258C33.4535 33.9258 32.9537 34.4499 32.9537 35.0965C32.9537 35.7431 33.4535 36.2672 34.07 36.2672H40.0235C40.64 36.2672 41.1398 35.7431 41.1398 35.0965C41.1398 34.4499 40.64 33.9258 40.0235 33.9258H34.07Z" fill="white"/>
<path id="Vector_4" fill-rule="evenodd" clip-rule="evenodd" d="M53.4181 41.3422C53.4181 42.2044 52.7518 42.9032 51.9298 42.9032C51.1078 42.9032 50.4414 42.2044 50.4414 41.3422C50.4414 40.4801 51.1078 39.7812 51.9298 39.7812C52.7518 39.7812 53.4181 40.4801 53.4181 41.3422Z" fill="white"/>
</g>
</g>
<defs>
<filter id="filter0_d_73_4780" x="0" y="0" width="86" height="86" filterUnits="userSpaceOnUse" color-interpolation-filters="sRGB">
<feFlood flood-opacity="0" result="BackgroundImageFix"/>
<feColorMatrix in="SourceAlpha" type="matrix" values="0 0 0 0 0 0 0 0 0 0 0 0 0 0 0 0 0 0 127 0" result="hardAlpha"/>
<feOffset dy="4"/>
<feGaussianBlur stdDeviation="5"/>
<feComposite in2="hardAlpha" operator="out"/>
<feColorMatrix type="matrix" values="0 0 0 0 0.94902 0 0 0 0 0.294118 0 0 0 0 0.52549 0 0 0 0.2 0"/>
<feBlend mode="normal" in2="BackgroundImageFix" result="effect1_dropShadow_73_4780"/>
<feBlend mode="normal" in="SourceGraphic" in2="effect1_dropShadow_73_4780" result="shape"/>
</filter>
</defs>
</svg>
