<svg width="86" height="86" viewBox="0 0 86 86" fill="none" xmlns="http://www.w3.org/2000/svg">
<g id="Group 164249">
<g id="Rectangle 12" filter="url(#filter0_d_73_4589)">
<rect x="10" y="6" width="66" height="66" rx="22" fill="#E6E63B"/>
</g>
<path id="Star 13" d="M41.0979 23.8541C41.6966 22.0115 44.3034 22.0115 44.9021 23.8541L47.2658 31.1287C47.5335 31.9527 48.3014 32.5106 49.1679 32.5106H56.8168C58.7543 32.5106 59.5598 34.9899 57.9924 36.1287L51.8043 40.6246C51.1033 41.1339 50.81 42.0366 51.0777 42.8607L53.4414 50.1353C54.0401 51.9779 51.9311 53.5101 50.3637 52.3713L44.1756 47.8754C43.4746 47.3661 42.5254 47.3661 41.8244 47.8754L35.6363 52.3713C34.0689 53.5101 31.9599 51.9779 32.5586 50.1353L34.9223 42.8607C35.19 42.0366 34.8967 41.1339 34.1957 40.6246L28.0076 36.1287C26.4402 34.9899 27.2457 32.5106 29.1832 32.5106H36.8321C37.6986 32.5106 38.4665 31.9527 38.7342 31.1287L41.0979 23.8541Z" fill="white"/>
</g>
<defs>
<filter id="filter0_d_73_4589" x="0" y="0" width="86" height="86" filterUnits="userSpaceOnUse" color-interpolation-filters="sRGB">
<feFlood flood-opacity="0" result="BackgroundImageFix"/>
<feColorMatrix in="SourceAlpha" type="matrix" values="0 0 0 0 0 0 0 0 0 0 0 0 0 0 0 0 0 0 127 0" result="hardAlpha"/>
<feOffset dy="4"/>
<feGaussianBlur stdDeviation="5"/>
<feComposite in2="hardAlpha" operator="out"/>
<feColorMatrix type="matrix" values="0 0 0 0 0.901961 0 0 0 0 0.901961 0 0 0 0 0.231373 0 0 0 0.2 0"/>
<feBlend mode="normal" in2="BackgroundImageFix" result="effect1_dropShadow_73_4589"/>
<feBlend mode="normal" in="SourceGraphic" in2="effect1_dropShadow_73_4589" result="shape"/>
</filter>
</defs>
</svg>
