<svg width="86" height="86" viewBox="0 0 86 86" fill="none" xmlns="http://www.w3.org/2000/svg">
<g id="Group 164239">
<g id="Rectangle 13" filter="url(#filter0_d_73_4792)">
<rect x="10" y="6" width="66" height="66" rx="22" fill="#FEAD37"/>
</g>
<g id="Group 164073">
<path id="Vector" d="M27 43.0004C27 40.7532 27 39.6297 27.5393 38.8226C27.7728 38.4732 28.0728 38.1732 28.4222 37.9398C29.2293 37.4004 30.3529 37.4004 32.6 37.4004C34.8471 37.4004 35.9707 37.4004 36.7778 37.9398C37.1272 38.1732 37.4272 38.4732 37.6607 38.8226C38.2 39.6297 38.2 40.7532 38.2 43.0004V49.4004C38.2 51.6476 38.2 52.7711 37.6607 53.5781C37.4272 53.9276 37.1272 54.2276 36.7778 54.461C35.9707 55.0004 34.8471 55.0004 32.6 55.0004C30.3529 55.0004 29.2293 55.0004 28.4222 54.461C28.0728 54.2276 27.7728 53.9276 27.5393 53.5781C27 52.7711 27 51.6476 27 49.4004V43.0004Z" fill="white"/>
<path id="Vector_2" fill-rule="evenodd" clip-rule="evenodd" d="M59.0002 35.8V42.2C59.0002 48.2339 59.0002 51.251 57.1257 53.1254C55.2513 55 52.2341 55 46.2002 55C43.4817 55 41.3756 55 39.7104 54.8286C40.2461 53.9888 40.4365 53.0971 40.5205 52.2718C40.6004 51.4862 40.6004 50.5382 40.6002 49.5056V49.4V43V42.8944C40.6004 41.8618 40.6004 40.9138 40.5205 40.1282C40.4338 39.2757 40.2335 38.3525 39.6564 37.4888C39.2479 36.8773 38.7229 36.3523 38.1114 35.9438C37.2478 35.3667 36.3245 35.1664 35.472 35.0797C34.8662 35.0181 34.1638 35.004 33.4004 35.0009C33.404 29.4959 33.4849 26.6644 35.2747 24.8745C37.1493 23 40.1663 23 46.2002 23C52.2341 23 55.2513 23 57.1257 24.8745C59.0002 26.749 59.0002 29.766 59.0002 35.8ZM41.8002 50.2C41.8002 49.5373 42.3375 49 43.0002 49H51.0002C51.6629 49 52.2002 49.5373 52.2002 50.2C52.2002 50.8627 51.6629 51.4 51.0002 51.4H43.0002C42.3375 51.4 41.8002 50.8627 41.8002 50.2Z" fill="white"/>
</g>
</g>
<defs>
<filter id="filter0_d_73_4792" x="0" y="0" width="86" height="86" filterUnits="userSpaceOnUse" color-interpolation-filters="sRGB">
<feFlood flood-opacity="0" result="BackgroundImageFix"/>
<feColorMatrix in="SourceAlpha" type="matrix" values="0 0 0 0 0 0 0 0 0 0 0 0 0 0 0 0 0 0 127 0" result="hardAlpha"/>
<feOffset dy="4"/>
<feGaussianBlur stdDeviation="5"/>
<feComposite in2="hardAlpha" operator="out"/>
<feColorMatrix type="matrix" values="0 0 0 0 0.996078 0 0 0 0 0.678431 0 0 0 0 0.215686 0 0 0 0.2 0"/>
<feBlend mode="normal" in2="BackgroundImageFix" result="effect1_dropShadow_73_4792"/>
<feBlend mode="normal" in="SourceGraphic" in2="effect1_dropShadow_73_4792" result="shape"/>
</filter>
</defs>
</svg>
